<svg xmlns="http://www.w3.org/2000/svg" viewBox="1968 0 14 14"><g xmlns="http://www.w3.org/2000/svg" transform="translate(1968)"><path fill="#F78422" d="M0 0h14v14H0z" data-darkreader-inline-fill="" style="--darkreader-inline-fill: #b65707;"/><g fill="#fff" data-darkreader-inline-fill="" style="--darkreader-inline-fill: #181a1b;"><path d="M2 2v2c4 0 8 3 8 8h2A10 10 0 0 0 2 2Z"/><path d="M2 5.3v2c2.6 0 4.7 2 4.7 4.7h2A6.7 6.7 0 0 0 2 5.3z"/><path d="M4.8 10.6a1.4 1.4 0 0 1-1.4 1.5A1.4 1.4 0 0 1 2 10.6a1.4 1.4 0 0 1 1.4-1.4 1.4 1.4 0 0 1 1.4 1.4z"/></g></g></svg>