<svg xmlns="http://www.w3.org/2000/svg" viewBox="435 1 14 14"><g xmlns="http://www.w3.org/2000/svg" transform="translate(434)"><path d="m11.44 3.32 1.08-1.99c.07-.13.04-.23-.08-.3-.13-.06-.23-.03-.3.1l-1.09 2a7.43 7.43 0 0 0-3.04-.64 7.3 7.3 0 0 0-3.04.63l-1.1-2C3.8 1 3.7.97 3.58 1.03c-.12.07-.14.17-.07.3l1.07 1.99a6.64 6.64 0 0 0-2.6 2.33C1.32 6.65 1 7.73 1 8.92h14c0-1.19-.32-2.27-.97-3.27-.64-1-1.5-1.77-2.59-2.33zM5.23 6.21a.57.57 0 0 1-.42.17.54.54 0 0 1-.4-.17.58.58 0 0 1-.17-.42c0-.16.05-.3.16-.41a.54.54 0 0 1 .41-.18c.16 0 .3.06.42.18.12.11.17.25.17.41 0 .16-.05.3-.17.42zm6.38 0a.54.54 0 0 1-.4.17.57.57 0 0 1-.43-.17.57.57 0 0 1-.17-.42c0-.16.06-.3.17-.41a.57.57 0 0 1 .42-.18c.16 0 .3.06.4.18.12.11.18.25.18.41a.6.6 0 0 1-.17.42zM1 15h14V9.46H1z" fill="#839e2e" data-darkreader-inline-fill="" style="--darkreader-inline-fill: #697e25;"/></g></svg>