<svg xmlns="http://www.w3.org/2000/svg" viewBox="460 4 16.01 7.01" fill="#00b2ff" xmlns:v="https://vecta.io/nano"><path d="M461.68 4.59l-.02.01a22.1 22.1 0 0 0-1.58 2.53l-.04.09-.02.03a.23.23 0 0 0 .03.25c.26.42 1.73.9 5 .9 2.46 0 5.05-.4 5.05-1.14 0-.72-2.56-1.14-5.04-1.14a12.76 12.76 0 0 0-1.87.15l1.16-1.66-.02-.02zm.96 2.67c0-.15.92-.37 2.42-.37s2.42.22 2.42.37-.92.37-2.42.37-2.42-.22-2.42-.37zm.9 3.73s12.2.5 12.46-3.82c.2-3.5-8.45-3.16-8.46-3.16s-.07 0-.07.05.03.06.06.06c2.4 0 6.31.96 6.19 3.06-.1 1.7-3.16 3.7-10.17 3.7-.05 0-.07.02-.07.05s.01.05.06.06z"/></svg>