<svg xmlns="http://www.w3.org/2000/svg" viewBox="460 4 16.01 7.01"><g xmlns="http://www.w3.org/2000/svg" transform="translate(460)"><g fill="#00b2ff" data-darkreader-inline-fill="" style="--darkreader-inline-fill: #008ecc;"><path d="m1.68 4.59-.02.01A22.1 22.1 0 0 0 .08 7.13l-.04.09-.02.03a.23.23 0 0 0 .03.25c.26.42 1.73.9 5 .9 2.46 0 5.05-.4 5.05-1.14 0-.72-2.56-1.14-5.04-1.14-.82 0-1.64.11-1.87.15a61.54 61.54 0 0 1 1.16-1.66l-.02-.02zm.96 2.67c0-.15.92-.37 2.42-.37s2.42.22 2.42.37-.92.37-2.42.37-2.42-.22-2.42-.37z"/><path d="M3.54 10.99s12.2.5 12.46-3.82c.2-3.5-8.45-3.16-8.46-3.16-.01 0-.07 0-.07.05s.03.06.06.06c2.4 0 6.31.96 6.19 3.06-.1 1.7-3.16 3.7-10.17 3.7-.05 0-.07.02-.07.05 0 .03.01.05.06.06z"/></g></g></svg>