<svg xmlns="http://www.w3.org/2000/svg" viewBox="486 2.78 16 10.25"><g xmlns="http://www.w3.org/2000/svg" transform="translate(486)"><path d="m0 3.15 3.29-.08c.64-.02 1.23.05 1.83.26v.12c-.52.45-.89.98-1.23 1.58l-2 .02.02 5.79 1.18.08 1.2-.01c.73-.01 1.4-1.19 1.46-1.83l.18-2.01C6 6.18 6.5 5.5 7.28 5.14c.49.83.7 1.76.7 2.73 0 3.07-1.86 5-4.8 4.9L0 12.64z" fill="#c00" data-darkreader-inline-fill="" style="--darkreader-inline-fill: #a30000;"/><path d="M9.71 3.04a4.3 4.3 0 0 0-1.35 1.58l-.33-.01c-1.16 0-2.22 1.04-2.36 2.2l-.3 2.54c-.04.36-.34.72-.57.98-.2.21-.42.25-.7.25h-.03a6.66 6.66 0 0 1-.55-2.63c0-2.88 1.58-5.17 4.52-5.17.58 0 1.13.11 1.67.26zm-3.59 9.54.95-.92.44-.63.72.01c.34.76.9 1.28 1.59 1.73-.5.17-1 .26-1.52.26-.76 0-1.47-.18-2.18-.45z" fill="#f0f" data-darkreader-inline-fill="" style="--darkreader-inline-fill: #cc00cc;"/><path d="m8.3 9.65 1.84.01c.2 1.2.97 1.53 2.12 1.53.73 0 1.8-.17 1.8-1.11 0-.5-.37-.75-.76-.96l.1-1.88c1.46.4 2.6.97 2.6 2.73 0 2.07-1.94 2.95-3.72 2.95-1.28 0-2.93-.38-3.61-1.61a2.88 2.88 0 0 1-.42-1.32l.02-.1zM15.68 6H13.8c-.15-.94-.92-1.4-1.83-1.4-.63 0-1.65.28-1.68 1.08-.01.04 0 .07.01.1l.37 1.1c.08.22.1.47.1.7 0 .28-.04.55-.08.83-1.32-.38-2.24-1.03-2.24-2.55 0-2.04 1.61-3 3.45-3 2.05 0 3.65.98 3.78 3.13z" fill="#cca300" data-darkreader-inline-fill="" style="--darkreader-inline-fill: #a38200;"/><path d="M12.28 4.97c.46.89.7 1.86.7 2.89 0 1.07-.26 2.08-.71 3.02l-.35.02c-.38 0-1.28-.27-1.28-.77 0-.09.01-.17.04-.25l.34-1.24c.07-.25.04-.54.04-.79 0-.96-.4-1.56-.43-2.22-.02-.47.79-.68 1.07-.68.2 0 .38 0 .58.02z" fill="#f0f" data-darkreader-inline-fill="" style="--darkreader-inline-fill: #cc00cc;"/></g></svg>