<svg xmlns="http://www.w3.org/2000/svg" viewBox="512 0.79 16 14.18" xmlns:v="https://vecta.io/nano"><path d="M521.74.98c.6.09 1.2.3 1.52.4.64.19 1.67.8 2.04 1.08.17.14.54.5.68.68l.56.8c.27.39.58.97.85 1.5.3.6.32.77.4 1.26l.2.88c.02.15.04.71-.3.79a.72.72 0 0 1-.76-.3c-.2-.3-.17-.73-.4-1.23-.17-.4-.24-.98-.52-1.4l-.22-.37c-.38-.59-.79-1.06-1.03-1.37-.2-.25-.6-.6-.97-.85a6.65 6.65 0 0 0-2.33-.82l-1.2-.16c-.55-.04-.8-.09-1.51 0-.27.07-.7.1-1.07.24a9.4 9.4 0 0 0-2.74 1.76c-.46.49-.69.75-1 1.37-.14.3-.41.78-.52 1.12-.08.34-.22.97-.2 1.28v1.11c.01.4.14.69.2 1.02.05.23.27 1.02.4 1.2a4.36 4.36 0 0 0 2.38 2.33c.26.14 1.07.35 1.3.42.41.07.94.12 1.45.13.54 0 1.28-.06 1.73-.23l1.04-.42.67-.42c.21-.13.33-.19.46-.31.17-.16.28-.25.42-.44l.3-.42c.13-.2.2-.42.32-.68.15-.4.12-.38.15-.8a2.27 2.27 0 0 0-.02-.59c-.07-.37-.05-.7-.13-1.07l-.36-1.33a3.73 3.73 0 0 0-.86-1.37 4.51 4.51 0 0 0-1.6-1.06c-.22-.08-.6-.16-.84-.2-.5-.06-.6-.03-1.08 0l-.7.17c-.42.15-.58.24-1 .5-.2.12-.36.2-.56.4-.16.15-.28.4-.41.56a4.05 4.05 0 0 0-.52.93c-.14.35-.2.84-.17 1.16a4.16 4.16 0 0 0 .1.79l.1.46c.01.06.17.38.2.42.08.2.25.46.54.74.2.23.62.46.92.55.27.15.74.17 1 .17.12 0 .44-.03.6-.07.35-.08.4-.08.76-.23.31-.15.53-.2.74-.36 0 0 .3-.24.44-.4.07-.1.2-.53.18-.8-.02-.37.04-.58-.04-.88a3.2 3.2 0 0 0-.33-.87 2.02 2.02 0 0 0-.78-.6c-.2-.1-.65-.18-.85-.2-.36-.05-.67.12-.86.3-.16.2-.48.58-.35.98.11.35.25.74.8.71.36.08.79-.04.93.03.21.12.3.39.22.57-.06.36-.4.4-.76.43-.33.05-1.16-.1-1.34-.24-.12-.08-.3-.25-.44-.37-.1-.08-.2-.27-.28-.4a1.49 1.49 0 0 1-.15-.4c-.03-.14-.09-.38-.07-.63.02-.16.06-.23.1-.48.1-.27.2-.48.38-.72.23-.23.52-.51.8-.64.26-.13.7-.18 1.1-.16.32.03.7.07.95.16.43.15.56.18.91.4.3.2.6.53.77.81.36.74.56 1.55.41 2.65 0 .18-.07.36-.18.6-.1.23-.3.51-.58.72-.1.1-.29.23-.43.3-.2.13-.35.2-.56.3-.2.1-.41.2-.7.27-.3.13-.55.13-.94.19-.38.1-1.44.03-2.06-.25a4.08 4.08 0 0 1-1.28-.88c-.2-.22-.4-.6-.46-.68-.29-.56-.34-1.08-.39-1.2-.06-.14-.1-.48-.14-.7a5.38 5.38 0 0 1 .25-2.04c.14-.28.23-.52.33-.65l.41-.6c.23-.27.4-.5.62-.66.57-.46 1.04-.7 1.69-1 .8-.33 1.03-.27 1.79-.25.34 0 .83.1 1.07.15.45.06.71.17 1.02.25.32.1.51.24.78.4.22.14.48.34.65.5.44.32.65.66.92 1.07.05.07.37.75.42.94l.14.52.15.76c.06.3.16.85.2 1.37.08.44-.04 1.35-.1 1.63a4.63 4.63 0 0 1-1.72 2.46c-.21.18-.4.28-.73.48-.44.27-.79.44-1.41.69l-.93.26a9.8 9.8 0 0 1-2.12.03 11.2 11.2 0 0 1-1.96-.44l-.93-.4a6.8 6.8 0 0 1-2.04-1.84c-.1-.18-.44-.73-.51-.97-.2-.4-.34-.89-.42-1.1-.09-.48-.23-.8-.29-1.28a3.61 3.61 0 0 0-.05-.53c.04-.34-.01-.65.05-1.02.06-.3.14-.43.16-.71.02-.12.17-.48.2-.64.13-.26.16-.47.32-.77.24-.45.48-.98.85-1.44.1-.14.41-.48.51-.6.25-.24.39-.28.67-.52.02-.02.2-.23.4-.3.31-.24.59-.33.89-.56l1.42-.65c.35-.12.83-.19 1-.26.33-.03.67-.13 1.03-.1a11.46 11.46 0 0 1 1.17.06c.27.01.61.03 1.08.13z" fill="#cf3311"/></svg>