<svg xmlns="http://www.w3.org/2000/svg" viewBox="590 3.24 16 9.54" xmlns:v="https://vecta.io/nano"><path d="M590 12.76h2.1v-1h-.55v-1.62l1.21 2.62h.73l1-2.54v1.55h-.37v.99h2.5v-1h-.57V9.03h.57v-.9h-2.26l-1 2.36-1.1-2.37H590v.9h.53v2.76H590zm0-9.52v.98h.52v2.7H590v.96h2.71v-.95h-.55v-.7h1.58v-.96h-1.56V4.22h1.95v.9h1.3V3.24zm11.52.01l-1.04.05-.56.06-.73.12a5.7 5.7 0 0 0-.57.17l-.17.07-.18.08-.15.09-.11.08-.1.07-.1.12a2.72 2.72 0 0 0-.27.43 2.02 2.02 0 0 0-.11.52 10.35 10.35 0 0 0-.04 1.36l.06.3a1.24 1.24 0 0 0 .3.49.55.55 0 0 0 .17.13 2.94 2.94 0 0 0 .57.22l.4.1.32.09c.07.02.08.04.09.05l-.01.04a.26.26 0 0 1-.08.02l-.2.04a6.05 6.05 0 0 0-.68.19c-.1.04-.18.08-.26.14l-.24.2a1.19 1.19 0 0 0-.28.47l-.1.32-.05.35-.04.41a5.2 5.2 0 0 0 .07 1.13 1.3 1.3 0 0 0 .26.5 2.56 2.56 0 0 0 .54.48 2.94 2.94 0 0 0 .95.36 10.86 10.86 0 0 0 3.28.25c.3 0 .51-.03.86-.08l1.13-.2c.31-.08.44-.12.55-.18.1-.05.2-.1.29-.18a1.64 1.64 0 0 0 .47-.56 3.51 3.51 0 0 0 .24-.85l-.03-.9a1.98 1.98 0 0 0-.1-.42c-.03-.13-.08-.25-.11-.33l-.09-.2a1.48 1.48 0 0 0-.2-.3.66.66 0 0 0-.14-.15.95.95 0 0 0-.2-.11 3.37 3.37 0 0 0-.5-.2l-.23-.07-.24-.05-.1-.04v-.04c0-.01 0-.03.02-.04a.4.4 0 0 1 .13-.02l.33-.04a3.4 3.4 0 0 0 1.05-.39c.07-.06.14-.14.2-.22.05-.09.1-.17.13-.26s.06-.18.07-.42v-.91a3.22 3.22 0 0 0-.23-1.02 1.79 1.79 0 0 0-.27-.41l-.2-.16a2.6 2.6 0 0 0-.78-.37 5.21 5.21 0 0 0-1.33-.27 16.14 16.14 0 0 0-1.66-.1zm.21.74c.14 0 .3.02.45.05a1.35 1.35 0 0 1 .65.33c.07.1.13.2.17.32a4.65 4.65 0 0 1 .11.97l-.06 1.31a.87.87 0 0 1-.08.28.64.64 0 0 1-.18.21c-.08.06-.18.12-.27.16a1.41 1.41 0 0 1-.63.16 2.5 2.5 0 0 1-.6-.04 2.05 2.05 0 0 1-.45-.14 1.4 1.4 0 0 1-.34-.25.37.37 0 0 1-.06-.08.82.82 0 0 1-.07-.14 6.33 6.33 0 0 1-.08-.84v-.67c0-.23.02-.43.03-.56 0-.13.01-.18.02-.24a.77.77 0 0 1 .22-.44 1.54 1.54 0 0 1 .8-.38h.37zm-.03 4.26a2.47 2.47 0 0 1 .55.09 1.91 1.91 0 0 1 .36.13.83.83 0 0 1 .36.36 5.18 5.18 0 0 1 .13 1.33l-.12 1.25a.86.86 0 0 1-.35.46 1.84 1.84 0 0 1-1.33.2 2.2 2.2 0 0 1-.68-.28.78.78 0 0 1-.24-.28 1.27 1.27 0 0 1-.1-.39c-.03-.13-.03-.27-.03-.45l.01-1.03.04-.31a1.4 1.4 0 0 1 .14-.58.53.53 0 0 1 .13-.13l.15-.1c.06-.04.12-.09.19-.12l.2-.07a1.55 1.55 0 0 1 .49-.08h.1z" fill="#abad1f"/></svg>