<svg xmlns="http://www.w3.org/2000/svg" viewBox="616 3.24 16 9.52"><g xmlns="http://www.w3.org/2000/svg" transform="translate(616)"><path d="M12.72 5.2H16V3.25H7.14v1.97h3.24v2.67h2.34Zm.01 2.91h-2.35v4.65h2.35zM0 12.76h2.1v-1h-.55v-1.62l1.21 2.62h.73l1-2.54v1.55h-.37v.99h2.5v-1h-.57V9.03h.57v-.9H4.36l-1 2.36-1.1-2.37H0v.9h.53v2.76H0Zm0-9.52v.98h.52v2.71H0v.95h2.71v-.95h-.55v-.7h1.58v-.96H2.18V4.22h1.95v.9h1.3V3.25Z" fill="#2eb85c" data-darkreader-inline-fill="" style="--darkreader-inline-fill: #25934a;"/></g></svg>