<svg xmlns="http://www.w3.org/2000/svg" viewBox="642 4 16 8" xmlns:v="https://vecta.io/nano"><path fill="#1900cd" d="M642 4h16v8h-16z"/><path d="M650.1 9.74h-1.07V6.2h1.5c.79 0 1.18.53 1.18 1.68 0 1.4-.42 1.85-1.63 1.85zm7.33-5.01h-1.23l-.04.1-1.37 4.18-1.47-4.17-.04-.09H652l.1.28.26.68a2.02 2.02 0 0 0-1.82-.98h-2.63v5.42l-1.95-5.31-.03-.09h-1l-.04.09-2.22 6.15-.1.28h2.8V9.82h-1.14l1.14-3.39 1.6 4.73.04.09h3.27c1.71 0 2.6-1.12 2.6-3.3a5.32 5.32 0 0 0-.1-1.04l1.57 4.25.03.09h.76l.04-.09 2.15-6.15z" fill="#fff"/></svg>