<svg xmlns="http://www.w3.org/2000/svg" viewBox="642 4 16 8"><g xmlns="http://www.w3.org/2000/svg" transform="translate(642)"><path fill="#1900cd" d="M0 4h16v8H0z" data-darkreader-inline-fill="" style="--darkreader-inline-fill: #1400a4;"/><path d="M8.1 9.74H7.03V6.2h1.5c.79 0 1.18.53 1.18 1.68 0 1.4-.42 1.85-1.63 1.85zm7.33-5.01H14.2l-.04.1-1.37 4.18-1.47-4.17-.04-.09H10l.1.28.26.68a2.02 2.02 0 0 0-1.82-.98H5.91v5.42L3.96 4.84l-.03-.09h-1l-.04.09-2.22 6.15-.1.28h2.8V9.82H2.23l1.14-3.39 1.6 4.73.04.09h3.27c1.71 0 2.6-1.12 2.6-3.3 0-.4-.04-.73-.1-1.04l1.57 4.25.03.09h.76l.04-.09 2.15-6.15z" fill="#fff" data-darkreader-inline-fill="" style="--darkreader-inline-fill: #181a1b;"/></g></svg>