<svg xmlns="http://www.w3.org/2000/svg" viewBox="667.98 4.5 16.02 7"><g xmlns="http://www.w3.org/2000/svg" transform="translate(668)"><path d="M15.5 9.99c-.34-.1-.72-.04-.72-.04s-1.09.11-1.66-.01c-.88-.16-.85-1.14-.85-1.14s-.03-.65.5-1.53C13.43 6.2 14.15 6 14.15 6s.18-.07.35.02c.1.63.7.63.7.63s.84.05.8-1c-.1-.88-.91-1-1.26-1.08-1.02-.2-1.68.37-1.68.37s-.7.39-1.51 1.73a3.61 3.61 0 0 0-.63 1.48s-.07.15-.04.84c-.02.54.18.93.18.93s.3.93 1.23 1.31c.57.25 1.4.24 1.4.24s.81 0 1.43-.04c.34.02.5-.16.5-.16s.38-.25.34-.7c0 0-.07-.46-.46-.58z" fill="#c10b44" data-darkreader-inline-fill="" style="--darkreader-inline-fill: #9a0936;"/><path d="M1.75 5.28A3.72 3.72 0 0 0 .03 9.04c.19 1.97 2.65 3.2 4.73 1.96.19-.1.12-.1.18-.15l.42-2.75H2.87l-.19 1.27h1.04l-.12.67c-.6.25-1.6.16-2.04-.64-.27-.51-.53-1.64.63-2.68.94-.85 2.56-1 3.5-.56 0 0 .12-.7.2-1.37a4.5 4.5 0 0 0-4.14.5z" fill="#6aab21" data-darkreader-inline-fill="" style="--darkreader-inline-fill: #55891a;"/><path d="m6.55 4.65-1.03 6.7h3.02c1.24 0 3.06-1.9 1.4-3.44 1.7-1.82.02-3.24-.89-3.26H6.54zm.74 4.06h1.13c1.06 0 1.03 1.34-.15 1.34H7.09zm.42-2.63h.87c.95 0 .76 1.25-.15 1.25H7.5z" fill="#c79d05" data-darkreader-inline-fill="" style="--darkreader-inline-fill: #9f7e04;"/></g></svg>