<svg xmlns="http://www.w3.org/2000/svg" viewBox="721.36 1.07 14.64 15"><g xmlns="http://www.w3.org/2000/svg" transform="translate(720)"><path d="M16.005 14.85c-.882-1.195-1.556-2.474-1.538-4.147.037-3.373.37-9.628-5.533-9.636-.24 0-.49.01-.752.03-6.596.535-4.846 7.542-4.944 9.888-.12 1.716-.64 3.453-1.874 5.016L16 16c0-.483.004-1.002.005-1.15z" fill="#4d4d4d" data-darkreader-inline-fill="" style="--darkreader-inline-fill: #3a3f41;"/><path d="M11.521 11.214c-.115-.225-.348-.44-.747-.604l-.002-.001c-.828-.357-1.187-.382-1.65-.684-.751-.486-1.373-.657-1.89-.654-.27 0-.512.049-.728.124-.63.218-1.047.672-1.309.921v.001c-.052.05-.118.094-.279.212-.161.119-.403.298-.752.56-.31.234-.41.538-.303.894.107.356.448.767 1.073 1.122l.002.001c.388.23.652.538.956.784.152.123.312.232.505.315s.417.139.698.155c.66.039 1.147-.16 1.576-.407.43-.247.794-.549 1.212-.685h.001c.857-.27 1.467-.812 1.658-1.326.096-.258.093-.502-.021-.728z" fill="#f3d427" data-darkreader-inline-fill="" style="--darkreader-inline-fill: #857207;"/><path d="M9.349 12.485c-.682.357-1.477.79-2.324.79-.846 0-1.515-.393-1.996-.776-.24-.192-.435-.382-.582-.52-.256-.204-.225-.488-.12-.48.176.023.202.255.313.36.15.14.338.323.565.505.455.362 1.06.714 1.82.714.758 0 1.642-.447 2.183-.752.305-.172.695-.481 1.012-.716.244-.18.235-.395.435-.372s.053.24-.228.486c-.282.246-.721.574-1.078.76z" fill="#202020" data-darkreader-inline-fill="" style="--darkreader-inline-fill: #181a1b;"/><path d="M3.707 16.07a9.167 9.167 0 0 0 .637-3.015c.076.055.335.231.45.297h.001c.338.2.592.493.921.76.33.265.742.495 1.363.532.06.003.118.005.176.005.64 0 1.14-.21 1.557-.45.453-.26.814-.548 1.157-.66h.001c.724-.228 1.3-.631 1.627-1.1.27 1.067.71 2.36 1.187 3.59l-9.077.041zm7.89-7.425a2.83 2.83 0 0 1-.24 1.202 2.33 2.33 0 0 1-.335.563 10.973 10.973 0 0 0-.583-.242c-.131-.05-.234-.084-.34-.12.077-.094.228-.204.285-.342.085-.208.127-.411.135-.654 0-.01.003-.018.003-.029a1.82 1.82 0 0 0-.094-.634 1.172 1.172 0 0 0-.29-.494.595.595 0 0 0-.416-.19h-.021a.608.608 0 0 0-.406.16 1.17 1.17 0 0 0-.325.472c-.085.208-.13.43-.135.655-.002.01-.002.018-.002.028-.003.134.006.257.027.376-.3-.15-.683-.26-.948-.323a3.242 3.242 0 0 1-.027-.359v-.033c-.005-.441.067-.82.236-1.203.168-.384.377-.66.67-.884a1.47 1.47 0 0 1 .925-.331h.016c.335 0 .62.099.915.313.298.218.513.49.687.872.17.371.251.734.26 1.165 0 .011 0 .02.003.032zm-5.056.44a2.617 2.617 0 0 0-.742.338c.017-.128.02-.257.006-.402l-.001-.023a1.756 1.756 0 0 0-.127-.516.994.994 0 0 0-.259-.381.42.42 0 0 0-.317-.12c-.113.01-.206.065-.294.173a1.003 1.003 0 0 0-.188.42c-.042.18-.054.367-.035.552l.002.022c.019.194.057.355.126.518a.986.986 0 0 0 .311.421c-.11.086-.183.146-.274.213l-.207.153a1.9 1.9 0 0 1-.43-.645 2.898 2.898 0 0 1-.24-1.026V8.78c-.02-.38.017-.708.121-1.047.105-.34.244-.585.447-.786.202-.202.405-.304.651-.316l.057-.002c.222 0 .42.075.626.24.223.18.392.408.533.731.142.323.217.646.238 1.027v.003a3 3 0 0 1-.004.456z" fill="#ccc" data-darkreader-inline-fill="" style="--darkreader-inline-fill: #35393b;"/><path d="M7.658 9.997c.029.09.174.075.259.12.073.037.133.121.216.124.08.002.203-.028.213-.107.014-.105-.138-.17-.236-.21-.125-.048-.286-.073-.404-.008-.027.016-.057.051-.048.08zm-.86 0c-.029.09-.174.075-.258.12-.074.037-.134.121-.217.124-.08.002-.203-.028-.213-.107-.013-.105.138-.17.236-.21.126-.048.287-.073.404-.008.027.016.057.051.048.08z" fill="#202020" data-darkreader-inline-fill="" style="--darkreader-inline-fill: #d4d0ca;"/></g></svg>