<svg xmlns="http://www.w3.org/2000/svg" viewBox="747.19 0.05 13.62 15.91"><g xmlns="http://www.w3.org/2000/svg" transform="translate(746)"><path d="m1.89 5.8.01-.02c.82-1.27 2.12-2 3.33-2 1.24 0 2.02.67 3.04.67 1 0 1.6-.68 3.03-.68 1.08 0 2.23.6 3.04 1.61-.22.13-.42.27-.6.42H1.88z" fill="#4d9537" data-darkreader-inline-fill="" style="--darkreader-inline-fill: #3e772c;"/><path d="M10.21 2.63A3.5 3.5 0 0 0 11 .05c-.85.05-1.85.6-2.43 1.3-.52.65-.96 1.6-.79 2.52.93.03 1.89-.52 2.44-1.24z" fill="#4d9537" data-darkreader-inline-fill="" style="--darkreader-inline-fill: #86cb71;"/><path d="M1.89 5.8c-.35.56-.6 1.34-.66 2.03h11.36c.12-.76.5-1.47 1.14-2.03H1.9z" fill="#ca8a02" data-darkreader-inline-fill="" style="--darkreader-inline-fill: #a26e02;"/><path d="M1.29 9.87a7.73 7.73 0 0 1-.06-2.04h11.36c-.11.69-.02 1.4.26 2.04H1.3z" fill="#c35f09" data-darkreader-inline-fill="" style="--darkreader-inline-fill: #9c4c07;"/><path d="M1.84 11.9a9.6 9.6 0 0 1-.55-2.03h11.56c.36.8 1.02 1.5 1.96 1.85l-.08.18H1.84z" fill="#b01c1f" data-darkreader-inline-fill="" style="--darkreader-inline-fill: #8d1619;"/><path d="M14.73 11.9a10.85 10.85 0 0 1-1.14 2.03H2.92l-.1-.16c-.4-.6-.73-1.24-.98-1.87h12.89z" fill="#903b91" data-darkreader-inline-fill="" style="--darkreader-inline-fill: #732f74;"/><path d="M13.6 13.93c-.66.96-1.54 2.01-2.6 2.02-1.04.01-1.3-.67-2.71-.67-1.41.01-1.7.69-2.74.68-1.11-.01-1.98-1.05-2.63-2.03h10.67z" fill="#0092cc" data-darkreader-inline-fill="" style="--darkreader-inline-fill: #0075a3;"/></g></svg>