<svg xmlns="http://www.w3.org/2000/svg" viewBox="850 4.6 16 6.8"><g xmlns="http://www.w3.org/2000/svg" transform="translate(850)"><path d="M9.3 10.05a9.5 9.5 0 0 0 2.92.44c1.1 0 1.56-.37 1.56-.85 0-.43-.42-.68-1.64-1.13-1.63-.6-2.83-1.07-2.83-2.15 0-1.1 1.44-1.76 3.63-1.76 1.18 0 1.59.07 2.33.2l.01 1.06c-.74-.13-1.39-.37-2.4-.37-1.08 0-1.54.34-1.54.7 0 .51.7.76 1.96 1.2 1.73.62 2.7 1.1 2.7 2.15 0 1.08-1.21 1.86-3.94 1.86-1.12 0-1.9-.07-2.75-.22zM3.5 5.53H2.2v4.93h1.3c1.99 0 3.25-.86 3.25-2.46S5.49 5.53 3.49 5.53zm3.48 5.38c-.64.29-1.86.48-2.92.48H0V4.62h4.06c1.06 0 2.28.18 2.92.47C8.55 5.8 9.06 6.93 9.06 8s-.5 2.2-2.08 2.91z" fill="#ccc" data-darkreader-inline-fill="" style="--darkreader-inline-fill: #35393b;"/></g></svg>