<svg xmlns="http://www.w3.org/2000/svg" viewBox="876 2.11 16.04 11.77"><g xmlns="http://www.w3.org/2000/svg" transform="translate(876)"><path d="M9.14 3.87a1.76 1.76 0 1 1-3.52 0 1.76 1.76 0 1 1 3.52 0zM4.46 2.2c.54.17.84.76.67 1.3l-3.09 9.61a1.04 1.04 0 1 1-1.98-.63l3.09-9.61c.18-.55.76-.85 1.3-.67zM8 7.45a1.76 1.76 0 1 1-3.52 0 1.76 1.76 0 1 1 3.53 0zm8.04-3.58a1.76 1.76 0 1 1-3.52 0 1.76 1.76 0 1 1 3.52 0zM11.36 2.2c.54.17.84.76.67 1.3l-3.09 9.61a1.04 1.04 0 1 1-1.98-.63l3.09-9.61c.18-.55.76-.85 1.3-.67zm3.54 5.25a1.76 1.76 0 1 1-3.52 0 1.76 1.76 0 1 1 3.53 0z" fill="#ca1c02" data-darkreader-inline-fill="" style="--darkreader-inline-fill: #a21602;"/></g></svg>