<svg xmlns="http://www.w3.org/2000/svg" viewBox="876 2.11 16.04 11.77" xmlns:v="https://vecta.io/nano"><path d="M885.14 3.87a1.76 1.76 0 0 1-2.64 1.524 1.76 1.76 0 0 1 0-3.048 1.76 1.76 0 0 1 2.64 1.524zm-4.68-1.67a1.04 1.04 0 0 1 .67 1.3l-3.09 9.61a1.04 1.04 0 0 1-1.784.419 1.04 1.04 0 0 1-.196-1.049l3.09-9.61c.18-.55.76-.85 1.3-.67zM884 7.45a1.76 1.76 0 0 1-2.64 1.524 1.76 1.76 0 0 1-.88-1.524c0-.975.79-1.765 1.765-1.765s1.765.79 1.765 1.765zm8.04-3.58a1.76 1.76 0 0 1-2.64 1.524 1.76 1.76 0 0 1 0-3.048 1.76 1.76 0 0 1 2.64 1.524zm-4.68-1.67a1.04 1.04 0 0 1 .67 1.3l-3.09 9.61a1.04 1.04 0 0 1-1.784.419 1.04 1.04 0 0 1-.196-1.049l3.09-9.61c.18-.55.76-.85 1.3-.67zm3.54 5.25a1.76 1.76 0 0 1-2.64 1.524 1.76 1.76 0 0 1-.88-1.524c0-.975.79-1.765 1.765-1.765s1.765.79 1.765 1.765z" fill="#ca1c02"/></svg>