<svg xmlns="http://www.w3.org/2000/svg" viewBox="928.58 0 14.74 16"><g xmlns="http://www.w3.org/2000/svg" transform="translate(928)"><path d="M11.14 6.3c2.4-.29 4.5 1.41 3.76 3.62-.11.34-.77 1.08-.77 1.08s1 .84 1.12 1.37c.45 2.25-1.44 3.58-3.36 3.63-2.03.05-4.27-1.19-3.83-3.5.06-.32.29-.61.4-.8.13-.19.69-.7.69-.7s-.75-1.06-.82-1.51c-.26-1.64.83-2.97 2.8-3.2zM10.66 9c0 1.18 1.98 1.16 1.98.06 0-1.25-1.98-1.27-1.98-.06zm1.02 5.16c1.56 0 1.57-2.1-.02-2.1-1.6 0-1.55 2.1.02 2.1z" fill="#cc6700" data-darkreader-inline-fill="" style="--darkreader-inline-fill: #a35200;"/><path d="M12.3.12v1.2c-3.77-.89-3.74 4.41-.04 3.53v1.2C6.53 7.3 6.5-1.03 12.3.12z" fill="#e6e6e6" data-darkreader-inline-fill="" style="--darkreader-inline-fill: #26292b;"/><path d="m5.27 3.7.01-1.19c.67 0 1.07-.2 1.07-.62 0-.34-.07-.69-1.42-.69v4.97H3.5V0h1.4c2.7 0 3 .95 3 1.85 0 1.3-1.04 1.86-2.63 1.86z" fill="#e6e6e6" data-darkreader-inline-fill="" style="--darkreader-inline-fill: #26292b;"/><path d="M3.7 6.3C6.13 6 8.22 7.7 7.48 9.91 7.36 10.26 6.7 11 6.7 11s1 .84 1.12 1.37c.46 2.25-1.44 3.58-3.36 3.63-2.03.05-4.26-1.2-3.83-3.5.06-.32.29-.61.4-.8.13-.19.69-.7.69-.7S.97 9.94.9 9.49c-.26-1.64.83-2.97 2.8-3.2zM3.24 9c0 1.18 1.98 1.16 1.98.06 0-1.25-1.98-1.27-1.98-.06zm1.03 5.16c1.55 0 1.56-2.1-.03-2.1-1.6 0-1.55 2.1.03 2.1z" fill="#cc6700" data-darkreader-inline-fill="" style="--darkreader-inline-fill: #a35200;"/></g></svg>