<svg xmlns="http://www.w3.org/2000/svg" viewBox="954.56 0 14.75 16" xmlns:v="https://vecta.io/nano"><path d="M958.7 16h-2.5l2.03-3.63c-.55 0-2.07-.26-2.63-.7a2.9 2.9 0 0 1-.9-3.1c.45-1.53 2.38-2.67 4.49-2.2 1.5.34 2.38 1 2.64 2.46a3.4 3.4 0 0 1-.43 2.31zm-1.85-6.52c0 1.58 2.76 1.62 2.76.06 0-1.63-2.76-1.65-2.76-.06zm8.29-3.18c2.4-.29 4.5 1.41 3.76 3.62-.11.34-.77 1.08-.77 1.08s1 .83 1.12 1.37c.45 2.25-1.44 3.58-3.36 3.63-2.03.05-4.27-1.19-3.83-3.5.06-.32.29-.61.4-.8.13-.19.69-.7.69-.7s-.75-1.06-.82-1.51c-.26-1.64.83-2.97 2.8-3.2zm-.48 2.7c0 1.18 1.98 1.16 1.98.06 0-1.25-1.98-1.27-1.98-.06zm1.02 5.16c1.56 0 1.57-2.1-.02-2.1-1.6 0-1.55 2.1.02 2.1z" fill="#c00"/><path d="M966.42.12v1.2c-3.8-.89-3.78 4.41-.05 3.53v1.2c-5.78 1.25-5.8-7.08.05-5.93zm-7.1 3.58V2.52c.68 0 1.08-.2 1.08-.62 0-.35-.06-.69-1.42-.69v4.97h-1.46l.01-6.18h1.42c2.71 0 3.03.95 3.03 1.85 0 1.3-1.06 1.86-2.66 1.86z" fill="#e6e6e6"/></svg>