<svg xmlns="http://www.w3.org/2000/svg" viewBox="980 0.62 16 14.75"><g xmlns="http://www.w3.org/2000/svg" transform="translate(980)"><path d="M1.03 12.32s1.16.04 1.34-.7l.07-1.4 1.35-.5A2.84 2.84 0 0 0 5.6 6.9V5.43c0-1.2-1.17-1.46-1.92-1.21L.04 5.53 0 11.26c.05 1.11 1.03 1.06 1.03 1.06zM2.14 6.8c0-.08.05-.13.2-.2l.82-.3c.26-.1.34-.07.34.18V7.7c0 .15-.15.27-.32.33l-.79.28c-.18.06-.25.07-.25-.13zm7.39-1.92 1.75-.62c.18-.07.14-.45.14-.53 0-1.16-1.01-1.7-1.73-1.43l-1.7.58c-1 .38-2.02.92-2.24 2.6v3.26c0 2 1.56 1.64 2.18 1.41L10.8 9.1c.48-.19.84-.68.77-1.32-.05-.4-.1-.79-.17-1.18-.02-.12-.02-.23-.16-.18l-1.7.62c-.16.06-.26.09-.26.28 0 .2.02.36-.27.46l-.9.31c-.1.04-.25.05-.25-.23V5.04c0-.13.05-.2.23-.26l.96-.33c.15-.05.26-.05.26.1v.18c0 .23.1.2.22.15zM14.8.66l-2.8.98c-.11.04-.14.14-.14.29V8.5c0 .21.06.23.22.18l3.6-1.3c.08-.02.11-.01.11-.13v-.6c0-.22-.03-.3-.22-.23L13 7.36c-.18.06-.25.1-.25-.14V5.5c0-.17.04-.18.1-.2l1.5-.55c.1-.04.24-.09.24-.22v-.56c0-.12-.06-.2-.32-.1L13 4.33c-.22.09-.25.04-.25-.16v-1.7c0-.07-.02-.11.17-.18l2-.75c.15-.05.18-.03.18-.18V.8c0-.17-.05-.22-.3-.14z" fill="#cc2000" data-darkreader-inline-fill="" style="--darkreader-inline-fill: #a31a00;"/><path d="M10.34 11.45 6.9 15.22c-.07.09-.03.12.06.07l4.46-2.78c.08-.05.1-.07.16-.05.07.02 1.67 1.17 1.67 1.17.11.08.17.04.13-.05l-.83-1.81c-.04-.1-.06-.17-.01-.21l3.36-3.67c.08-.12.03-.18-.1-.1l-4.17 2.58c-.1.06-.15.06-.21.02L9.87 9.34c-.16-.09-.21-.05-.17.13l.7 1.72c.05.1.02.17-.06.26z" fill="#cc2000" stroke="#fff" stroke-miterlimit="2.61" stroke-width=".12" data-darkreader-inline-fill="" data-darkreader-inline-stroke="" style="--darkreader-inline-fill: #a31a00; --darkreader-inline-stroke: #e8e6e3;"/></g></svg>