<svg xmlns="http://www.w3.org/2000/svg" xmlns:xlink="http://www.w3.org/1999/xlink" viewBox="1030.56 0.66 19.29 14.67" xmlns:v="https://vecta.io/nano"><use xlink:href="#B" fill="#de0029"/><use xlink:href="#C" fill="#f3c202"/><use xlink:href="#D" fill="#326db3"/><use xlink:href="#E" fill="#00aa9e"/><use xlink:href="#B" fill="#cc0026"/><use xlink:href="#C" fill="#caa202"/><use xlink:href="#D" fill="#2d639f"/><use xlink:href="#E" fill="#00ccbe"/><defs ><path id="B" d="M1040.97 3.72l-.01 11.6-3.11-1V.66l3.97 1.05c2.54.69 4.1 2.01 4.07 4.34-.03 2.7-1.28 3.8-3.72 3.08V3.81c0-.65-1.2-.68-1.2-.09z"/><path id="C" d="M1036.42 12.06l-1.47.5c-.95.33-1.76-.45-.88-.76l.7-.25-2.66-.85c-.82.28-1.6.87-1.55 1.7.06.85 1.99 1.05 3.48 1.3a7.6 7.6 0 0 0 3.8-.3v-.88zm4.56 3.27l2.72-.95-2.74-.87v1.75z"/><path id="D" d="M1048.21 12.79l.05-.02c1.19-.41 1.7-1 1.57-1.54-.2-.91-1.66-1.4-3.9-1.57a12 12 0 0 0-4.72.77l-.25.1 2.76.85 1.62-.54c1.7-.32 2.38.24.75.76l-.81.27zm-10.36-4.02l-1.23.41 1.23.38z"/><path id="E" d="M1043.7 14.38l4.51-1.6-2.93-.9-4.33 1.47v.16zm-5.85-2.8l-1.43.48 1.43.46zm3.1.75v-1.8l2.77.85zm-6.18-.78l3.07-1.1v-.89l-1.22-.38-4.45 1.5-.06.02z"/></defs></svg>