<svg xmlns="http://www.w3.org/2000/svg" viewBox="1240 0.95 16 14.1"><g xmlns="http://www.w3.org/2000/svg" transform="translate(1240)"><path d="M0 .95h16v14.1H0z"/><path d="m5.7 12.33 2.64-2.6.02-.06-2.66 2 2.7-2.8-2.7 2.06 2.6-2.74-2.6 2.11 2.5-2.8c-.9-.76-3.03-.1-4.88 1.56-1.94 1.73-2.84 3.88-2.01 4.8.82.93 3.06.28 5-1.45.52-.47.97-.97 1.33-1.47z" fill="#609ad2" data-darkreader-inline-fill="" style="--darkreader-inline-fill: #265887;"/><path d="m4.52 10.08-.9-.01v2.28h.9v-.63h.89v1.39H3.18c-.22 0-.43-.22-.43-.43V9.75c0-.31.15-.43.42-.43h2.24v1.51h-.89Z" fill="#080808" data-darkreader-inline-fill="" style="--darkreader-inline-fill: #e3e1dd;"/><path d="m10.3 6.62-2.64 2.6-.02.06 2.66-2-2.7 2.8 2.7-2.06-2.6 2.74 2.6-2.11-2.5 2.8c.9.76 3.03.1 4.89-1.56 1.93-1.73 2.83-3.88 2-4.8-.82-.93-3.06-.28-5 1.45-.52.47-.97.97-1.33 1.47z" fill="#e4bb4e" data-darkreader-inline-fill="" style="--darkreader-inline-fill: #715711;"/><path d="M13.31 9.23c0 .22-.22.43-.43.43h-2.23v-3.8h2.23c.22.03.43.22.43.44zm-1.77-.33h.9V6.62h-.9Z"/><path d="M2.93 2.17c.07-.1.18-.22.31-.21h.8l-.01.26c.1-.12.22-.27.4-.26h1.1v2.13h-.75V2.57c-.14-.02-.2.12-.27.21-.26.44-.55.87-.8 1.32h-.78c.31-.53.64-1.04.96-1.56-.16.01-.37-.04-.49.1L2.49 4.1H1.7l1.22-1.93zm2.91.05c.1-.13.3-.28.49-.26h1.63v.47l-1.22.01c-.15.06-.18.25-.28.36H8l-.3.42H6.47v.41h1.5v.47H5.7V2.8a.92.92 0 0 1 .15-.58zm2.46-.07c.07-.09.26-.2.39-.2h1.76v.49H9.3c-.26-.02-.37.27-.45.47 0 .32-.06.32-.02.72.43.03.53.02 1.07 0 .03-.1.01-.22.02-.34-.19-.03-.15-.02-.5-.03l.25-.46h.92v1.07c0 .08-.03.14-.05.21-.7.03-1.4.01-2.1.02-.2.03-.32-.17-.3-.33V2.6c0-.18.07-.3.17-.45zm2.49-.19h1.19c.2-.03.36.15.46.31l1.14 1.83h-.81c-.1-.14-.18-.3-.32-.4h-.72a5.72 5.72 0 0 1-.2-.35v.75h-.74V1.95zm.75.46v.8h.65c-.14-.2-.26-.44-.4-.65a.37.37 0 0 0-.25-.15z" fill="#fff" data-darkreader-inline-fill="" style="--darkreader-inline-fill: #181a1b;"/></g></svg>