<svg xmlns="http://www.w3.org/2000/svg" viewBox="1266 2.26 16 11.47"><g xmlns="http://www.w3.org/2000/svg" transform="translate(1266)"><path d="M0 9.05c0-.44.34-.78.68-1a4.63 4.63 0 0 1 2.24-.61c.93-.03 1.9.1 2.71.57.4.23.8.63.75 1.12-.07.53-.54.87-.99 1.09a5.6 5.6 0 0 1-3.07.38 3.55 3.55 0 0 1-2-.85 1.02 1.02 0 0 1-.32-.7Z" fill="#5f9933" data-darkreader-inline-fill="" style="--darkreader-inline-fill: #4c7a29;"/><path d="M5.9 12.04c0-.46.36-.82.73-1.06a5 5 0 0 1 2.46-.64c.97 0 1.97.14 2.8.65.41.25.8.7.7 1.22-.13.56-.65.9-1.14 1.11-1.05.44-2.24.5-3.35.31a3.4 3.4 0 0 1-1.94-.93 1.03 1.03 0 0 1-.26-.66Z" fill="#c1bc0b" data-darkreader-inline-fill="" style="--darkreader-inline-fill: #9a9609;"/><path d="M7.27 8.32a3.04 3.04 0 0 0 2.54-1.58c.56-1 .48-2.31-.2-3.23a3.04 3.04 0 0 0-2.99-1.2 3.04 3.04 0 0 0-2.44 2.38l-.12.57h.26a3.04 3.04 0 0 1 2.95 3.06" fill="#1489b8" data-darkreader-inline-fill="" style="--darkreader-inline-fill: #106e93;"/><path d="M13.17 11.31a2.96 2.96 0 0 0 2.48-1.55c.55-1 .44-2.32-.28-3.22A2.96 2.96 0 0 0 12.4 5.5a2.96 2.96 0 0 0-2.25 2.43c-.03.12-.06.4-.06.4l.3.01a2.96 2.96 0 0 1 2.79 2.98z" fill="#bd0f14" data-darkreader-inline-fill="" style="--darkreader-inline-fill: #970c10;"/></g></svg>