<svg xmlns="http://www.w3.org/2000/svg" viewBox="1292 3.64 16 8.72"><g xmlns="http://www.w3.org/2000/svg" transform="translate(1292)"><path d="M0 3.64h16v8.72H0z"/><path d="M5.06 4.67v6.58H1.02z" fill="#c00" data-darkreader-inline-fill="" style="--darkreader-inline-fill: #a30000;"/><path d="M8.44 4.67v6.58H4.4z" fill="#c00" data-darkreader-inline-fill="" style="--darkreader-inline-fill: #a30000;"/><path fill="#0c0" d="M9.34 4.8h1.95v6.5H9.34zm2.36 0h-.06l-.02 2.23.1-.01.42-2.18c-.16-.03-.31-.03-.43-.03zm.76.07-.58 2.16c.05 0 .1.02.15.04L12.98 5a2.7 2.7 0 0 0-.52-.14zm.83.29-1.13 1.96.11.07 1.45-1.75c-.13-.1-.28-.2-.43-.28zm.7.53-1.62 1.58c.04.04.08.08.1.12l1.92-1.21a3.17 3.17 0 0 0-.4-.5zm.55.74L12.55 7.5l.06.12 2.18-.57a3.38 3.38 0 0 0-.25-.62zm.34.95-2.23.35.05.24h2.24c0-.2-.03-.4-.06-.6zm-2.18.78c-.05.53-.46.94-.95.94h-.12v-.05 2.25H12c1.59 0 2.88-1.4 2.93-3.14z" data-darkreader-inline-fill="" style="--darkreader-inline-fill: #00a300;"/></g></svg>