<svg xmlns="http://www.w3.org/2000/svg" viewBox="1319 1 14 14"><g xmlns="http://www.w3.org/2000/svg" transform="translate(1318)"><rect x="2.1" y="2.09" width="4.52" height="11.78" ry="0" fill="#cc0010" data-darkreader-inline-fill="" style="--darkreader-inline-fill: #a3000d;"/><path d="M4.25 3.9c-.19.04-.46.18-.61.3-.3.27-.46.64-.43 1.08 0 .23.02.3.11.48.14.28.35.49.63.63.2.1.24.1.5.11.22.01.3 0 .46-.05.63-.21 1-.82.9-1.45a1.33 1.33 0 0 0-1.56-1.1zM9.2 1.02A370 370 0 0 0 9.17 8c0 6.33 0 6.97.05 6.98.08.03 2.33.02 2.6 0a3.62 3.62 0 0 0 3-2.43c.19-.54.18-.4.18-4.56 0-3.33 0-3.82-.05-4.04A3.6 3.6 0 0 0 12 1.05C11.8 1 11.5 1 10.48 1c-.7 0-1.28 0-1.29.02z" fill="#818990" data-darkreader-inline-fill="" style="--darkreader-inline-fill: #5b6266;"/><rect x="10.63" y="7.41" width="2.56" height="2.67" fill="#cc0010" ry="1.28" data-darkreader-inline-fill="" style="--darkreader-inline-fill: #ff3d4c;"/><path d="M4 1.05a3.62 3.62 0 0 0-2.87 2.63C1 4.18.99 4.46 1 8.26c0 3.5 0 3.57.06 3.84a3.63 3.63 0 0 0 2.83 2.83c.19.04.43.05 2 .06 1.62.01 1.8.01 1.83-.03.05-.05.05-.6.05-6.95 0-4.7 0-6.92-.03-6.96C7.72 1 7.67 1 5.97 1 4.6 1 4.18 1.01 4 1.05zM6.62 8v5.88l-1.18-.02a6.1 6.1 0 0 1-1.42-.07 2.46 2.46 0 0 1-1.82-1.9c-.06-.29-.06-7.5 0-7.79.17-.81.74-1.49 1.5-1.8.38-.15.56-.16 1.8-.17h1.12z" fill="#818990" data-darkreader-inline-fill="" style="--darkreader-inline-fill: #5b6266;"/></g></svg>