<svg xmlns="http://www.w3.org/2000/svg" viewBox="1348 0 8 16" xmlns:v="https://vecta.io/nano"><path d="M1348 15.55c0-.25 1.79-.45 4-.45 2.2 0 4 .2 4 .45s-1.79.45-4 .45-4-.2-4-.45z" fill="#888"/><path d="M1348.6 11.3c0-1.2 1.52-2.18 3.4-2.18s3.4.98 3.4 2.19c0 1.2-1.52 2.18-3.4 2.18s-3.4-.98-3.4-2.18z" fill="#e5ca00"/><path d="M1348.83 5.6c-.5.22-.63 1.46-.63 1.46s.13 1.25.63 1.46 3.17.34 3.17.34 2.67-.13 3.17-.34.63-1.46.63-1.46-.13-1.24-.63-1.46c-.5-.2-3.17-.34-3.17-.34s-2.67.13-3.17.34z" fill="#77f"/><path fill="#c00" d="M1348.02 2.56L1352 0l3.98 2.56-3.98 2.56z"/></svg>