<svg xmlns="http://www.w3.org/2000/svg" viewBox="1370.96 0.96 14.06 14.06" xmlns:v="https://vecta.io/nano"><path d="M1373.14 2h9.71c.63 0 1.13.5 1.13 1.14v9.71a1.12 1.12 0 0 1-1.13 1.13h-9.71a1.13 1.13 0 0 1-1.14-1.13V3.14c0-.64.5-1.14 1.14-1.14z" fill="#303030" stroke="#bfbfbf" stroke-width="2.08" paint-order="stroke fill markers"/><g fill="#bfbfbf"><path d="M1372.5 2l2.3 6.01h.83l2.42-6.04h-1.25l-1.5 4.46-1.64-4.43z"/><path d="M1377.94 2v5.94h.9v-4.5l3.03 4.53h.87V2h-.87v4.4l-3.03-4.4zm-1.14 6.01h-3.74v5.97h3.78v-.71h.87V8.8h-.9zm-2.76.76h1.9v4.53h-1.9zm8.73.04v1.13h-1.73V8.81h-1.6v1.81h3.33v2.65h-.94v.75h-3.14v-.75h-.98v-1.33h1.74v1.33h2.38v-1.33h-.8v-.6h-2.33v-.68h-.98V8.84h.98v-.79h3.14v.76z"/></g></svg>