<svg xmlns="http://www.w3.org/2000/svg" viewBox="1396 0 16 16"><g xmlns="http://www.w3.org/2000/svg" transform="translate(1396)"><path d="m.75 8.2 1.08.9c.47-.72 1-1.38 1.55-1.98a1.42 1.42 0 0 1-.12-1.01c-.59-.38-1.2-.8-1.82-1.28A7.24 7.24 0 0 0 .72 8v.23l.03-.04zm1.04-4c.63.47 1.23.9 1.81 1.28a1.42 1.42 0 0 1 1.91-.16 11.45 11.45 0 0 1 2.92-1.4 1.57 1.57 0 0 1 .12-.78c-.87-.74-1.9-1.4-3.09-1.97A7.3 7.3 0 0 0 1.79 4.2zM6.46.88c.94.5 1.77 1.06 2.5 1.67.25-.21.56-.35.9-.38l.22-1.15A7.3 7.3 0 0 0 6.46.88zm4.3.38c-.05.34-.12.67-.18 1 .47.18.84.58.98 1.08.64-.05 1.31-.06 2.01-.03a7.42 7.42 0 0 0-2.8-2.05zm3.37 2.8a17 17 0 0 0-2.55 0 1.6 1.6 0 0 1-.49.87 9.68 9.68 0 0 1 1.2 2.62h.14c.64 0 1.18.42 1.36 1a51 51 0 0 0 1.47.03c.02-.2.02-.39.02-.58 0-1.45-.42-2.8-1.15-3.94zm1.04 5.23c-.46 0-.9-.01-1.34-.03-.12.56-.56 1-1.11 1.11.02.67 0 1.36-.07 2.1.4-.05.82-.11 1.24-.19a7.25 7.25 0 0 0 1.28-2.99zm-.87 3.64A7.97 7.97 0 0 1 8 16a7.97 7.97 0 0 1-8-8 7.97 7.97 0 0 1 8-8 7.97 7.97 0 0 1 8 8 8 8 0 0 1-1.7 4.93zm-1.12.19-.62.07-.09.56c.24-.19.47-.39.68-.6l.03-.03zm-1.54 1.19c.08-.37.14-.72.19-1.07-1.3.07-2.55-.02-3.76-.28a1.28 1.28 0 0 1-1.07.46l-.65 1.68a7.24 7.24 0 0 0 5.3-.79zm-5.98.6c.22-.6.44-1.17.67-1.74-.28-.2-.48-.53-.52-.9a16.95 16.95 0 0 1-3.79-2.13c-.2.34-.39.69-.57 1.04a7.31 7.31 0 0 0 4.21 3.72zm-4.56-4.6.36-.61-.64-.52c.07.39.16.77.28 1.13zm4.86-4.44a1.42 1.42 0 0 1 .07.97c.78.37 1.55.67 2.33.9.28-.85.56-1.73.81-2.65a1.6 1.6 0 0 1-.5-.5 10.94 10.94 0 0 0-2.7 1.28zm-.3 1.58a1.42 1.42 0 0 1-1.78.19c-.53.57-1.02 1.2-1.47 1.88a16.4 16.4 0 0 0 3.54 2.03 1.29 1.29 0 0 1 1.29-.7c.3-.78.6-1.59.89-2.43-.83-.25-1.64-.57-2.47-.97zm4.81-2.18a1.6 1.6 0 0 1-.62.06c-.25.9-.52 1.77-.8 2.6.69.18 1.38.3 2.11.4.1-.21.26-.4.46-.53a9.2 9.2 0 0 0-1.15-2.53zM12 10.33a1.43 1.43 0 0 1-1-1.29 17.3 17.3 0 0 1-2.19-.42c-.3.87-.6 1.7-.92 2.51a1.28 1.28 0 0 1 .47 1.16c1.14.23 2.32.3 3.56.23.08-.77.1-1.5.08-2.19z" fill="#5f57ff" data-darkreader-inline-fill="" style="--darkreader-inline-fill: #070098;"/></g></svg>