<svg xmlns="http://www.w3.org/2000/svg" viewBox="1396 0 16 16" xmlns:v="https://vecta.io/nano"><path d="M1396.75 8.2l1.08.9a15.41 15.41 0 0 1 1.55-1.98 1.42 1.42 0 0 1-.12-1.01l-1.82-1.28a7.24 7.24 0 0 0-.72 3.17v.23l.03-.04zm1.04-4l1.81 1.28a1.42 1.42 0 0 1 1.91-.16 11.45 11.45 0 0 1 2.92-1.4 1.57 1.57 0 0 1 .12-.78c-.87-.74-1.9-1.4-3.09-1.97a7.3 7.3 0 0 0-3.67 3.03zm4.67-3.32c.94.5 1.77 1.06 2.5 1.67a1.62 1.62 0 0 1 .9-.38l.22-1.15a7.3 7.3 0 0 0-3.62-.14zm4.3.38l-.18 1a1.63 1.63 0 0 1 .98 1.08 16.66 16.66 0 0 1 2.01-.03 7.42 7.42 0 0 0-2.8-2.05zm3.37 2.8a17 17 0 0 0-2.55 0 1.6 1.6 0 0 1-.49.87 9.68 9.68 0 0 1 1.2 2.62h.14c.64 0 1.18.42 1.36 1l1.47.03c.02-.2.02-.39.02-.58 0-1.45-.42-2.8-1.15-3.94zm1.04 5.23c-.46 0-.9-.01-1.34-.03-.12.56-.56 1-1.11 1.11a16.8 16.8 0 0 1-.07 2.1l1.24-.19a7.25 7.25 0 0 0 1.28-2.99zm-.87 3.64a7.97 7.97 0 0 1-11.966.736A7.97 7.97 0 0 1 1396 8a7.97 7.97 0 0 1 8-8 7.97 7.97 0 0 1 8 8 8 8 0 0 1-1.7 4.93zm-1.12.19l-.62.07-.09.56c.24-.19.47-.39.68-.6l.03-.03zm-1.54 1.19l.19-1.07c-1.3.07-2.55-.02-3.76-.28a1.28 1.28 0 0 1-1.07.46l-.65 1.68a7.24 7.24 0 0 0 5.3-.79zm-5.98.6l.67-1.74c-.28-.2-.48-.53-.52-.9a16.95 16.95 0 0 1-3.79-2.13l-.57 1.04a7.31 7.31 0 0 0 4.21 3.72zm-4.56-4.6l.36-.61-.64-.52c.07.39.16.77.28 1.13zm4.86-4.44a1.42 1.42 0 0 1 .07.97c.78.37 1.55.67 2.33.9l.81-2.65a1.6 1.6 0 0 1-.5-.5 10.94 10.94 0 0 0-2.7 1.28zm-.3 1.58a1.42 1.42 0 0 1-1.78.19 14.54 14.54 0 0 0-1.47 1.88 16.4 16.4 0 0 0 3.54 2.03 1.29 1.29 0 0 1 1.29-.7l.89-2.43c-.83-.25-1.64-.57-2.47-.97zm4.81-2.18a1.6 1.6 0 0 1-.62.06l-.8 2.6a17.88 17.88 0 0 0 2.11.4c.1-.21.26-.4.46-.53a9.2 9.2 0 0 0-1.15-2.53zm1.53 5.06a1.43 1.43 0 0 1-1-1.29 17.3 17.3 0 0 1-2.19-.42l-.92 2.51a1.28 1.28 0 0 1 .47 1.16c1.14.23 2.32.3 3.56.23.08-.77.1-1.5.08-2.19z" fill="#5f57ff"/></svg>