<svg xmlns="http://www.w3.org/2000/svg" viewBox="1422 4.17 16 7.66"><g xmlns="http://www.w3.org/2000/svg" transform="translate(1422)"><path d="M8.74 4.6 7.4 9.88S6.36 5.9 6.2 5.35c-.17-.57-.51-.81-1-.81-.5 0-.84.24-1.01.8-.17.57-1.2 4.55-1.2 4.55l-1.35-5.3H0s1.56 5.65 1.78 6.3c.16.52.55.94 1.13.94.67 0 .98-.49 1.12-.93.14-.44 1.16-4.18 1.16-4.18s1 3.74 1.15 4.18c.14.44.45.93 1.12.93.58 0 .97-.42 1.14-.93.2-.66 1.77-6.3 1.77-6.3zm5.58 7.17h1.54V6.8h-1.54zm-.15-6.73c0 .48.41.87.9.87.52 0 .93-.38.93-.87 0-.48-.4-.87-.92-.87-.5 0-.9.4-.9.87zm-2.98 6.73h1.54V6.8H11.2Zm-.15-6.73c0 .48.4.87.9.87.52 0 .93-.38.93-.87 0-.48-.4-.87-.93-.87-.5 0-.9.4-.9.87z" fill="#b1b1b4" data-darkreader-inline-fill="" style="--darkreader-inline-fill: #43494c;"/></g></svg>