<svg xmlns="http://www.w3.org/2000/svg" viewBox="1448 0.82 16 14.36" xmlns:v="https://vecta.io/nano"><path d="M1449.92 7.12c1.9-.88 3.87-.73 5.92.25l1.6-5.64c-1.92-.95-3.87-1.37-5.97-.19z" fill="#cc3000"/><path d="M1457.93 1.87c2.7 1.23 4.62.8 6.07.4l-1.55 5.4c-2.81 1.37-4.49.5-6.13-.12z" fill="#90c200"/><path d="M1456.2 8.06c1.8.76 3.7 1.24 6.08.26l-1.93 6.16c-2.27 1.14-4 .75-5.94-.15z" fill="#cc9f00"/><path d="M1448 13.93c1.92-1 3.9-.78 5.92.22l1.78-6.29c-.82-.37-2.7-1.4-5.98-.07z" fill="#028bca"/></svg>