<?xml version="1.0" encoding="utf-8"?>
<svg viewBox="1579 1 14 13.84" width="13.9999" height="13.8425" xmlns="http://www.w3.org/2000/svg" xmlns:xlink="http://www.w3.org/1999/xlink">
  <defs>
    <radialGradient id="w" cx="23.69" cy="12.77" r="14.35" gradientTransform="matrix(0 1.8458 -1.5756 0 41.66 -29.48)" gradientUnits="userSpaceOnUse">
      <stop stop-color="#fff" offset="0"/>
      <stop stop-color="#fff" stop-opacity="0" offset="1"/>
    </radialGradient>
    <radialGradient id="x" cx="23.69" cy="12.77" r="14.35" gradientTransform="matrix(0 1.1525 -.98381 0 34.1 -13.06)" gradientUnits="userSpaceOnUse">
      <stop stop-color="#fff" offset="0"/>
      <stop stop-color="#666" stop-opacity="0" offset="1"/>
    </radialGradient>
    <linearGradient id="u" gradientUnits="userSpaceOnUse" gradientTransform="matrix(.41805 0 0 .41527 -1.2 .47)" x1="17.96" y1="19.43" x2="15" y2="17.36" xlink:href="#p"/>
    <linearGradient id="p">
      <stop stop-color="#e5edae" offset="0"/>
      <stop stop-color="#249b47" offset="1"/>
    </linearGradient>
    <linearGradient id="s" gradientUnits="userSpaceOnUse" gradientTransform="matrix(.41805 0 0 .41527 -1.24 .47)" x1="21.34" y1="15.45" x2="22.08" y2="7.5" xlink:href="#r"/>
    <linearGradient id="r" x1="19.52" x2="21.8" y1="15.67" y2="11.52" gradientUnits="userSpaceOnUse" gradientTransform="matrix(.41805 0 0 .41527 -10.01 1.77)">
      <stop stop-color="#e6edae" offset="0"/>
      <stop stop-color="#459743" offset="1"/>
    </linearGradient>
    <linearGradient id="v" x1="10.08" y1="9.83" x2="11.87" y2="8.38" gradientUnits="userSpaceOnUse" xlink:href="#o"/>
    <linearGradient id="o">
      <stop offset="0" stop-color="#e6edae"/>
      <stop offset="1" stop-color="#359644"/>
    </linearGradient>
    <linearGradient id="t" gradientUnits="userSpaceOnUse" gradientTransform="matrix(-.41668 0 0 .41565 17.22 .47)" x1="20.3" y1="15.11" x2="22.04" y2="7.83" xlink:href="#q"/>
    <linearGradient id="q" x1="20.12" x2="21.97" y1="15.57" y2="10.98" gradientUnits="userSpaceOnUse" gradientTransform="matrix(-.41668 0 0 .41565 4.5 .72)">
      <stop stop-color="#e6eead" offset="0"/>
      <stop stop-color="#46873f" offset="1"/>
    </linearGradient>
  </defs>
  <g transform="matrix(1, 0, 0, 1, 1578, 0)">
    <g transform="matrix(.4878 0 0 .46892 -3.38 -.23)">
      <ellipse cx="23.33" cy="17.39" rx="14.35" ry="14.76" fill="#666"/>
      <ellipse cx="23.33" cy="17.39" rx="14.35" ry="14.76" fill="url(#w)"/>
      <ellipse cx="23.33" cy="17.39" rx="14.35" ry="14.76" fill="url(#x)"/>
    </g>
    <path d="M6.23 4.89c-.77.94-4.01 4.74-3.72 7.32.2.25.42.49.65.71-.03-1.97 2.28-4.08 4.08-5.67Z" fill="url(#u)"/>
    <path d="M4.34 2.03c-.4.24-.78.53-1.13.84a5.3 5.3 0 0 1 2.84 2c.53.83.82 1.6 1.2 2.38l.79-.66V3.18a6.89 6.89 0 0 0-3.7-1.15z" fill="url(#s)"/>
    <path d="M9.78 4.89c.77.94 4 4.74 3.72 7.32-.2.25-.42.49-.65.71.03-1.97-2.28-4.08-4.09-5.67z" fill="url(#v)"/>
    <path d="M11.66 2.02c.4.25.78.53 1.12.85a5.29 5.29 0 0 0-2.82 2c-.54.83-.82 1.6-1.2 2.38l-.79-.66V3.17a6.85 6.85 0 0 1 3.68-1.15h.01z" fill="url(#t)"/>
  </g>
</svg>