<svg xmlns="http://www.w3.org/2000/svg" viewBox="1605 0.96 14 14.05"><g xmlns="http://www.w3.org/2000/svg" transform="translate(1604)"><path d="M8.7 14.97a6.99 6.99 0 0 0 3.1-1.1c.8-.51.97-.72.97-1.14 0-.85-.93-2.33-2.52-4.01-.9-.96-2.16-2.08-2.3-2.05-.26.05-2.37 2.12-3.16 3.09-1.26 1.53-1.83 2.79-1.54 3.35.22.42 1.6 1.25 2.61 1.57.84.27 1.94.38 2.84.3zm5.13-3.12a7.3 7.3 0 0 0 1.14-3.42c.06-.47.04-.74-.12-1.7a6.97 6.97 0 0 0-1.7-3.46c-.35-.36-.38-.37-.8-.23-.53.18-1.08.56-1.94 1.34l-.5.46.27.33a21.72 21.72 0 0 1 3.12 5.15c.28.75.39 1.5.27 1.8-.08.22 0 .14.26-.27zm-11.46.17c-.07-.32.01-.9.2-1.48.42-1.26 1.8-3.61 3.08-5.2l.4-.51-.44-.4a9.14 9.14 0 0 0-1.38-1.1 2.7 2.7 0 0 0-1.02-.38c-.12 0-.57.46-.93.96a7.32 7.32 0 0 0-1.17 2.72c-.14.64-.15 2-.02 2.63.1.53.31 1.2.52 1.66.16.35.55 1.01.72 1.23.09.11.09.11.04-.13zM8.58 2.7c.59-.3 1.5-.62 2-.7.17-.04.47-.05.66-.04.41.02.4 0-.27-.32a6.8 6.8 0 0 0-4.34-.54c-.74.15-1.62.48-2.11.78l-.15.1.34-.02c.67-.04 1.64.23 2.69.74.32.16.59.28.61.28l.57-.28z" fill="#1daf1e" data-darkreader-inline-fill="" style="--darkreader-inline-fill: #178c18;"/></g></svg>