<svg xmlns="http://www.w3.org/2000/svg" viewBox="1682 0.53 16 14.95"><g xmlns="http://www.w3.org/2000/svg" transform="translate(1682)"><g fill="#914040" data-darkreader-inline-fill="" style="--darkreader-inline-fill: #743333;"><path d="M.85.53h14.27c.43.1.78.45.88.88V14.6c-.1.43-.45.78-.88.88H.88A1.2 1.2 0 0 1 0 14.6V1.4C.1 1 .43.66.85.53M2.13 1.6v1.07h2.14V1.6H2.13m3.2 0v1.07h2.14V1.6H5.33m3.2 0v1.07h2.14V1.6H8.53m3.2 0v1.07h2.14V1.6h-2.14m-9.6 2.13v8.54h11.74V3.73H2.13m0 9.6v1.07h2.14v-1.07H2.13m3.2 0v1.07h2.14v-1.07H5.33m3.2 0v1.07h2.14v-1.07H8.53m3.2 0v1.07h2.14v-1.07z"/><path d="M5.33 4.8 11.72 8l-6.39 3.2z"/></g></g></svg>