<svg xmlns="http://www.w3.org/2000/svg" viewBox="1682 0.53 16 14.95" fill="#914040" xmlns:v="https://vecta.io/nano"><path d="M1682.85.53h14.27c.43.1.78.45.88.88V14.6c-.1.43-.45.78-.88.88h-14.24a1.2 1.2 0 0 1-.88-.88V1.4c.1-.4.43-.74.85-.87m1.28 1.07v1.07h2.14V1.6h-2.14m3.2 0v1.07h2.14V1.6h-2.14m3.2 0v1.07h2.14V1.6h-2.14m3.2 0v1.07h2.14V1.6h-2.14m-9.6 2.13v8.54h11.74V3.73h-11.74m0 9.6v1.07h2.14v-1.07h-2.14m3.2 0v1.07h2.14v-1.07h-2.14m3.2 0v1.07h2.14v-1.07h-2.14m3.2 0v1.07h2.14v-1.07z"/><path d="M1687.33 4.8l6.39 3.2-6.39 3.2z"/></svg>