<svg xmlns="http://www.w3.org/2000/svg" viewBox="1656 0.53 16 14.94" fill="#914040" xmlns:v="https://vecta.io/nano"><path d="M1656.92.53h14.16c.23.07.47.16.64.35.14.16.22.37.28.57v13.1a1.3 1.3 0 0 1-.35.64c-.16.14-.37.22-.57.28h-14.16a1.3 1.3 0 0 1-.64-.35 1.41 1.41 0 0 1-.28-.57V1.45c.06-.2.14-.4.28-.57.17-.18.4-.28.64-.35m1.21 1.07v1.07h2.14V1.6h-2.14m3.2 0v1.07h2.14V1.6h-2.14m3.2 0v1.07h2.14V1.6h-2.14m3.2 0v1.07h2.14V1.6h-2.14m-9.6 2.13v8.54h11.74V3.73h-11.74m0 9.6v1.07h2.14v-1.07h-2.14m3.2 0v1.07h2.14v-1.07h-2.14m3.2 0v1.07h2.14v-1.07h-2.14m3.2 0v1.07h2.14v-1.07h-2.14z"/><path d="M1659.35 5.28c.62-.58 1.65-.78 2.37-.23.44.3.66.82.97 1.24.3-.04.5-.34.79-.45.51-.3 1.17-.4 1.71-.11a2 2 0 0 1 .95.97c-.36-.17-.72-.37-1.13-.35-1.05-.01-1.94.96-1.92 2-.03.7.35 1.35.89 1.78.25.2-.23.35-.5.44-.55.28-1.1.55-1.7.7-.34.04-.57-.3-.8-.52a14.4 14.4 0 0 1-1.97-2.7 2.36 2.36 0 0 1-.01-2.35c.09-.16.2-.3.34-.43zm8.05 1.02a1.5 1.5 0 0 1 1.66.67c.34.51.3 1.2.02 1.73-.39.73-.9 1.4-1.44 2-.2.23-.46.55-.8.38-.82-.27-1.57-.7-2.3-1.16-.48-.33-.92-.83-.94-1.45-.07-.78.57-1.57 1.36-1.6.48-.03.89.27 1.27.52.22.08.28-.36.44-.5.19-.25.42-.5.73-.59z"/></svg>