<svg xmlns="http://www.w3.org/2000/svg" viewBox="1709.08 0 13.82 16"><g xmlns="http://www.w3.org/2000/svg" transform="translate(1708)"><path fill="#eaeaea" d="M1.64.73h12.72v14.55l-12.72-.02V.73" data-darkreader-inline-fill="" style="--darkreader-inline-fill: #242728;"/><path fill="#706f6f" d="M3.27 2H6v.55H3.27V2zm0 1.45H6V4H3.27v-.55zm0 1.45H6v.55H3.27v-.54zm0 1.46H6v.55H3.27v-.55zm0 1.46H6v.54H3.27v-.54z" data-darkreader-inline-fill="" style="--darkreader-inline-fill: #545b5e;"/><path fill="#706f6f" d="M1.1 0h13.8v13.08l-.53.02V16H1.63v-2.9l-.55-.02V0m.55.73v11.82h.72v2.72h11.28v-2.72h.72V.73h-1.09v10.36H6.55V.73H1.64" data-darkreader-inline-fill="" style="--darkreader-inline-fill: #545b5e;"/><path fill="#706f6f" d="M3.27 9.27H6v.55H3.27v-.55zm0 1.46H6v.54H3.27v-.54zm0 1.45H6v.55H3.27v-.55zm0 1.46H6v.54H3.27v-.54z" data-darkreader-inline-fill="" style="--darkreader-inline-fill: #a2998d;"/><path fill="#939292" d="M6.9.73h6v10h-6v-10z" data-darkreader-inline-fill="" style="--darkreader-inline-fill: #555c60;"/></g></svg>