<svg xmlns="http://www.w3.org/2000/svg" viewBox="1734.02 0.01 16 15.97" xmlns:v="https://vecta.io/nano"><path fill="#bdc3c7" d="M1741.16.06a7.95 7.95 0 0 1 6.37 13.67 7.93 7.93 0 0 1-8.47 1.69 8.09 8.09 0 0 1-5.04-7.7 7.94 7.94 0 0 1 7.14-7.65m.58 5.78a2.17 2.17 0 0 0-1.037 3.894 2.17 2.17 0 0 0 3.437-2.104"/><path fill="#ecf0f1" d="M1741.74 5.84a2.17 2.17 0 0 1 .599 4.298 2.17 2.17 0 0 1-2.469-1.788 2.16 2.16 0 0 1 1.88-2.51zm-.03.72c-.8.15-1.37 1.07-1.09 1.85.17.53.66.96 1.23.99.33.03.66-.07.96-.24.3-.23.46-.46.56-.78a1.41 1.41 0 0 0-1.09-1.83 1.51 1.51 0 0 0-.57 0zm-5.31-3.24a6.99 6.99 0 0 1 1.24-1.19l2.65 3.51a2.95 2.95 0 0 0-1.16 1.96l-4.33-.55a7.24 7.24 0 0 1 1.6-3.73zm8.5 4.95l4.29.52c0 .37-.11.73-.2 1.09a7.31 7.31 0 0 1-2.64 3.84l-2.58-3.4c.79-.55.98-1.29 1.13-2.05z"/></svg>