<svg xmlns="http://www.w3.org/2000/svg" viewBox="1734.02 0.01 16 15.97"><g xmlns="http://www.w3.org/2000/svg" transform="translate(1734)"><path fill="#bdc3c7" d="M7.16.06a7.95 7.95 0 0 1 6.37 13.67 7.93 7.93 0 0 1-8.47 1.69 8.09 8.09 0 0 1-5.04-7.7A7.94 7.94 0 0 1 7.16.07m.58 5.78a2.17 2.17 0 1 0 2.4 1.79" data-darkreader-inline-fill="" style="--darkreader-inline-fill: #3a3f42;"/><path fill="#ecf0f1" d="M7.74 5.84a2.17 2.17 0 1 1-1.87 2.51 2.16 2.16 0 0 1 1.88-2.51Zm-.03.72c-.8.15-1.37 1.07-1.09 1.85.17.53.66.96 1.23.99.33.03.66-.07.96-.24.3-.23.46-.46.56-.78a1.41 1.41 0 0 0-1.09-1.83 1.51 1.51 0 0 0-.57 0ZM2.4 3.32c.36-.44.78-.85 1.24-1.19.92 1.18 1.88 2.47 2.65 3.51A2.95 2.95 0 0 0 5.13 7.6C3.67 7.44 2.09 7.22.8 7.05a7.24 7.24 0 0 1 1.6-3.73Zm8.5 4.95c1.45.13 3.02.37 4.29.52 0 .37-.11.73-.2 1.09a7.31 7.31 0 0 1-2.64 3.84c-.89-1.13-1.8-2.4-2.58-3.4.79-.55.98-1.29 1.13-2.05z" data-darkreader-inline-fill="" style="--darkreader-inline-fill: #1e2729;"/></g></svg>