<svg xmlns="http://www.w3.org/2000/svg" viewBox="1760.27 0.03 15.46 15.96"><g xmlns="http://www.w3.org/2000/svg" transform="translate(1760)"><g fill="#b5b5b5" data-darkreader-inline-fill="" style="--darkreader-inline-fill: #42474a;"><path d="M5.13.75c.16-.35.5-.61.88-.68C7.62 0 9.4.03 10.82.05c.02 1.68.01 3.36 0 5.04.61.02 1.22 0 1.83 0 .15.02.34.02.41.18.02.15-.08.27-.16.4L8.48 11.4c-.13.16-.32.35-.55.29-.25-.08-.4-.33-.55-.53L3.14 5.72c-.09-.13-.22-.28-.2-.45.06-.17.26-.16.41-.17.55-.01 1.1.01 1.66-.01V1.5c0-.25 0-.52.12-.76z"/><path d="M.9 11.01c.38-.1.78-.04 1.16-.04.02 1.06.01 2.13 0 3.19 4.09 0 8.08.04 11.87 0v-3.2c.4 0 .79-.04 1.17.05.32.09.52.4.63.69v3.9c-.1.22-.3.38-.54.36-5.17-.1-10.1.13-14.58-.03-.17-.03-.26-.19-.34-.32v-3.9c.1-.3.3-.61.63-.7z"/></g></g></svg>