<svg xmlns="http://www.w3.org/2000/svg" viewBox="1786.3 -0.02 15.4 16.02"><g xmlns="http://www.w3.org/2000/svg" transform="translate(1786)"><path fill="#b5b5b5" d="M3.8 0c1.5 0 2.8.8 3.8 1.9.4.6-.1 1.3-.8 1.4-1.2.4-2.7.5-3.9 0-1-.7-1-2.2 0-3 .2-.1.6-.3 1-.3Zm0 1.2c-.7.1-.5 1.3.3 1.2h2c0-.7-.8-.7-1.2-1a3 3 0 0 0-1-.2ZM12 0c1.3-.2 2.4 1.6 1.6 2.7-.8 1.1-2.3 1-3.5.9-.9 0-2.3-.7-1.6-1.8A5.6 5.6 0 0 1 11.9 0ZM9.6 2.3c1 .1 2.3.5 3-.5-.4-1.1-1.8-.4-2.4 0l-.6.5zm-8.8 2c.7-.2 1.3-.1 2-.1h4.5V8H1.2c-.4.1-.7-.2-.9-.5V4.8c.2-.2.3-.5.5-.5zm7.9-.1h6.5l.5.6v2.7c-.2.2-.3.5-.6.5H8.7V4.2zM1.2 9.3c.2-.4.7-.5 1-.4h5.1V16H1.8c-.3-.1-.6-.3-.6-.6V9.3zM8.7 9c.9-.2 1.8-.1 2.8-.1h2.7c.3 0 .6.3.6.6v6c-.1.3-.4.4-.6.5H8.7V9z" data-darkreader-inline-fill="" style="--darkreader-inline-fill: #42474a;"/></g></svg>