<svg xmlns="http://www.w3.org/2000/svg" viewBox="1864 1.72 16 12.56"><g xmlns="http://www.w3.org/2000/svg" transform="translate(1864)"><g fill="#b5b5b5" data-darkreader-inline-fill="" style="--darkreader-inline-fill: #42474a;"><path d="M.63 1.72h14.74c.3.06.56.27.63.57v11.42c-.1.29-.32.54-.63.57H.63a.81.81 0 0 1-.63-.57V2.29c.07-.3.34-.51.63-.57m4.03 4.5c-.42.78-.42 1.7-.35 2.56.05.61.21 1.27.7 1.68.45.43 1.13.5 1.7.35.53-.15.94-.58 1.1-1.09a2.4 2.4 0 0 0-.03-1.44c-.25-.63-.93-1.13-1.62-1-.32.01-.57.22-.8.41.03-.38.06-.78.23-1.13a.68.68 0 0 1 .77-.36c.33.05.39.53.73.55a.5.5 0 0 0 .54-.6c-.09-.28-.34-.49-.58-.64a1.85 1.85 0 0 0-2.39.71m7.64-.67c-.32.19-.56.49-.7.82-.14.33-.14.69-.13 1.04.03.72.6 1.4 1.31 1.52.45.08.9-.1 1.23-.4-.05.43-.05.91-.34 1.26-.21.27-.67.34-.9.07-.16-.2-.37-.47-.66-.38-.2.02-.32.2-.38.37-.05.29.14.53.34.7.4.34.97.4 1.46.3a1.8 1.8 0 0 0 1.28-1.07c.28-.63.3-1.35.28-2.03-.04-.64-.14-1.33-.57-1.84a1.8 1.8 0 0 0-2.22-.36m-9.92-.08c-.23.24-.39.55-.66.75-.25.23-.59.34-.84.57-.23.3.1.8.47.66.3-.12.56-.34.8-.55.02 1.19-.02 2.37.02 3.56.07.38.61.51.87.24.21-.18.13-.49.15-.73V5.9c.05-.41-.5-.7-.81-.44m7.26.58c-.36.08-.66.45-.6.82-.01.46.46.86.91.77.45-.05.8-.54.68-.98a.82.82 0 0 0-1-.61m.04 2.53c-.2.04-.4.17-.5.36-.3.38-.1 1 .34 1.18.47.24 1.1-.13 1.14-.66.08-.53-.47-1-.98-.88z"/><path d="M13.01 6.2c.39-.09.76.23.85.6.1.39.11.87-.18 1.2-.23.21-.6.26-.86.06-.35-.27-.35-.76-.33-1.16.02-.3.2-.64.52-.7zm-7 1.84c.42-.1.82.26.85.67.03.38.08.87-.24 1.16a.6.6 0 0 1-.8 0c-.34-.24-.39-.7-.37-1.08.02-.33.22-.68.56-.74z"/></g></g></svg>