<svg xmlns="http://www.w3.org/2000/svg" viewBox="1890 0.56 16 14.88"><g xmlns="http://www.w3.org/2000/svg" transform="translate(1890)"><g fill="#b5b5b5" data-darkreader-inline-fill="" style="--darkreader-inline-fill: #42474a;"><path d="M.54.56h14.92c.26.07.45.3.54.54v13.8c-.06.11-.1.24-.2.34-.1.08-.22.15-.34.2H.54A.84.84 0 0 1 0 14.9V1.1C.1.85.28.63.54.56m11.29 3.96a1.9 1.9 0 0 0-1.52.98.59.59 0 0 0 .2.81c.2.15.48.11.68-.03.19-.18.3-.45.53-.6.34-.2.87-.11 1.07.25.17.36.1.88-.26 1.1-.2.15-.48.16-.68.32-.17.2-.15.51.05.7.22.22.6.1.85.3.3.2.43.6.4.96.02.4-.18.83-.56 1-.38.2-.92.07-1.14-.32-.13-.2-.27-.45-.53-.5-.38-.11-.79.22-.78.61.02.3.22.56.43.77.78.76 2.08.82 2.97.24.42-.28.74-.7.89-1.18.15-.57.1-1.23-.3-1.7-.2-.3-.55-.42-.88-.54.22-.18.49-.33.65-.57.2-.24.31-.56.3-.87 0-.7-.5-1.33-1.14-1.6a2.35 2.35 0 0 0-1.23-.13m-7.93.5-2.3 3.4c-.17.25-.4.53-.33.85.02.43.4.77.83.8.65.02 1.3 0 1.96 0 .04.38-.1.82.15 1.14.2.27.66.3.91.08.32-.32.2-.8.23-1.2.24-.04.54-.02.7-.24.2-.23.17-.63-.08-.8-.17-.17-.42-.13-.63-.15-.01-1.22.03-2.44-.01-3.66-.01-.38-.38-.73-.77-.67-.3-.01-.5.24-.66.47m3.86.08c-.36.07-.67.36-.78.7a1.08 1.08 0 0 0 1.64 1.25c.44-.29.6-.91.35-1.37-.2-.46-.73-.69-1.2-.58m.21 3.62a1.1 1.1 0 0 0-.92.55c-.22.37-.18.88.1 1.22a1.08 1.08 0 0 0 1.9-.95c-.12-.48-.6-.84-1.08-.82z"/><path d="m2.5 8.9 1.56-2.35v2.36H2.5Z"/></g></g></svg>