<svg xmlns="http://www.w3.org/2000/svg" viewBox="1916 0.58 16 14.84"><g xmlns="http://www.w3.org/2000/svg" transform="translate(1916)"><g fill="#b5b5b5" data-darkreader-inline-fill="" style="--darkreader-inline-fill: #42474a;"><path d="M.5.58h9.6l-.01 3.82-.71.02V1.27H1.19v4.56h4.78v1.62h-3.6l-.02-.32H4.4l.02-.4H.51Z"/><path d="M6.4 4.81H16v6.12h-4.02v.4l2.02.01.01.32-3.97-.01.2-.65-.18-.97h5.22V5.5H7.1v2.57h-.7z"/><path d="m0 8.56 9.6-.02v6.16h-4v.4h2v.32H1.87v-.32h2.07v-.4H0V8.56m.72.7v4.53H8.9V9.27Z"/></g></g></svg>