<svg xmlns="http://www.w3.org/2000/svg" viewBox="1944.5 -0.01 11 16.01" fill="#914040" xmlns:v="https://vecta.io/nano"><path d="M1949.8 0c1.47-.1 2.93.83 3.45 2.21.39.93.2 1.95.25 2.93l-.02 3.7a3.52 3.52 0 0 1-3 3.13 3.51 3.51 0 0 1-3.74-2.2c-.37-.9-.2-1.9-.24-2.84l.02-3.81A3.52 3.52 0 0 1 1949.8 0zm-.29 1.04c-.94.19-1.8.98-1.94 1.96-.13.43-.04.92-.07 1.37V8.7a2.52 2.52 0 0 0 2.11 2.28c1.17.2 2.4-.54 2.76-1.67.22-.66.1-1.37.13-2.05l-.01-4a2.47 2.47 0 0 0-1.99-2.18c-.3-.1-.67-.07-.99-.03z"/><path d="M1944.77 8.05a.5.5 0 0 1 .64.16c.1.15.09.34.1.51a4.45 4.45 0 0 0 2.7 3.91 4.5 4.5 0 0 0 6.28-3.85c.01-.19-.02-.4.1-.57a.5.5 0 0 1 .64-.16c.13.07.21.2.27.34v.37l-.11.85a5.48 5.48 0 0 1-4.03 4.22c-.28.08-.57.1-.85.15-.02.35 0 .7 0 1.01.13.02.26.01.4.01h2c.13 0 .28.01.4.1a.5.5 0 0 1 .14.63.66.66 0 0 1-.34.27h-6.21a.66.66 0 0 1-.34-.27.5.5 0 0 1 .15-.63c.1-.09.25-.1.4-.1h2.4l-.01-1.02-.41-.06a5.47 5.47 0 0 1-4.59-5.13v-.4a.66.66 0 0 1 .27-.34zm5.73-7.09V2h-1V.96zm-2 1.04h1v1h-1zm2 0h1v1h-1zm-3 1h1v1h-1c-.02-.01 0-1 0-1zm2 0h1v1h-1V3zm2 0h1.01l-.01 1h-1zm-3 1h1v1h-1zm2 0h1v1h-1V4zm-3.08 1h1.08v1h-1zm2.08 0h1v1h-1V5zm2 0h1l.1 1h-1.1zm-3 1h1v1h-1V6zm2 0h1v1h-1V6z"/><path d="M1947.4 7h1.1v1h-1.1zm2.1 0h1v1h-1V7zm2 0h1.1l-.1 1h-1zm-3 1h1v1h-1V8zm2 0h1v1h-1V8zm-3.04 1h1.04v1h-.8zm2.04 0h1v1h-1V9zm2 0h1.06l-.37 1h-.69zm-3 1h1v1.04l-1-.45zm2 0h1v.74l-1 .32z"/></svg>