<svg xmlns="http://www.w3.org/2000/svg" viewBox="1944.5 -0.01 11 16.01"><g xmlns="http://www.w3.org/2000/svg" transform="translate(1942)"><g fill="#914040" data-darkreader-inline-fill="" style="--darkreader-inline-fill: #743333;"><path d="M7.8 0c1.47-.1 2.93.83 3.45 2.21.39.93.2 1.95.25 2.93-.01 1.24.02 2.47-.02 3.7a3.52 3.52 0 0 1-3 3.13 3.51 3.51 0 0 1-3.74-2.2c-.37-.9-.2-1.9-.24-2.84.01-1.27-.02-2.54.02-3.81A3.52 3.52 0 0 1 7.8 0Zm-.29 1.04c-.94.19-1.8.98-1.94 1.96-.13.43-.04.92-.07 1.37V8.7a2.52 2.52 0 0 0 2.11 2.28c1.17.2 2.4-.54 2.76-1.67.22-.66.1-1.37.13-2.05 0-1.33.02-2.66-.01-4A2.47 2.47 0 0 0 8.5 1.08c-.3-.1-.67-.07-.99-.03z"/><path d="M2.77 8.05a.5.5 0 0 1 .64.16c.1.15.09.34.1.51a4.45 4.45 0 0 0 2.7 3.91 4.5 4.5 0 0 0 6.28-3.85c.01-.19-.02-.4.1-.57a.5.5 0 0 1 .64-.16c.13.07.21.2.27.34v.37c-.03.28-.06.57-.11.85a5.48 5.48 0 0 1-4.03 4.22c-.28.08-.57.1-.85.15-.02.35 0 .7 0 1.01.13.02.26.01.4.01h2c.13 0 .28.01.4.1a.5.5 0 0 1 .14.63.66.66 0 0 1-.34.27H4.9a.66.66 0 0 1-.34-.27.5.5 0 0 1 .15-.63c.1-.09.25-.1.4-.1h2.4a17 17 0 0 0-.01-1.02l-.41-.06A5.47 5.47 0 0 1 2.5 8.79v-.4a.66.66 0 0 1 .27-.34zM8.5.96V2h-1V.96zM6.5 2h1v1h-1zm2 0h1v1h-1zm-3 1h1v1h-1c-.02-.01 0-1 0-1Zm2 0h1v1h-1V3zm2 0h1.01l-.01 1h-1Zm-3 1h1v1h-1zm2 0h1v1h-1V4zM5.42 5H6.5v1h-1ZM7.5 5h1v1h-1V5zm2 0h1l.1 1H9.5Zm-3 1h1v1h-1V6zm2 0h1v1h-1V6z"/><path d="M5.4 7h1.1v1H5.4Zm2.1 0h1v1h-1V7zm2 0h1.1l-.1 1h-1Zm-3 1h1v1h-1V8zm2 0h1v1h-1V8zM5.46 9H6.5v1h-.8zM7.5 9h1v1h-1V9zm2 0h1.06l-.37 1H9.5Zm-3 1h1v1.04l-1-.45zm2 0h1v.74l-1 .32Z"/></g></g></svg>