<svg xmlns="http://www.w3.org/2000/svg" viewBox="435 1 14 14" xmlns:v="https://vecta.io/nano"><path d="M445.44 3.32l1.08-1.99c.07-.13.04-.23-.08-.3-.13-.06-.23-.03-.3.1l-1.09 2a7.43 7.43 0 0 0-3.04-.64 7.3 7.3 0 0 0-3.04.63l-1.1-2c-.07-.12-.17-.15-.29-.09-.12.07-.14.17-.07.3l1.07 1.99a6.64 6.64 0 0 0-2.6 2.33c-.66 1-.98 2.08-.98 3.27h14a5.85 5.85 0 0 0-.97-3.27c-.64-1-1.5-1.77-2.59-2.33zm-6.21 2.89a.57.57 0 0 1-.42.17.54.54 0 0 1-.4-.17.58.58 0 0 1-.17-.42c0-.16.05-.3.16-.41a.54.54 0 0 1 .41-.18c.16 0 .3.06.42.18a.53.53 0 0 1 .17.41c0 .16-.05.3-.17.42zm6.38 0a.54.54 0 0 1-.4.17.57.57 0 0 1-.43-.17.57.57 0 0 1-.17-.42c0-.16.06-.3.17-.41a.57.57 0 0 1 .42-.18c.16 0 .3.06.4.18a.54.54 0 0 1 .18.41.6.6 0 0 1-.17.42zM435 15h14V9.46h-14z" fill="#839e2e"/></svg>