<svg xmlns="http://www.w3.org/2000/svg" viewBox="538 4.21 16 7.2" xmlns:v="https://vecta.io/nano"><path fill="#ddd" d="M547.11 5.46s-1.1 1.35-1.04 1.44c.08-.1-.4-1.46-.4-1.46l-.4-1.23h-5.9l-.2.89h1.91c1 0 1.6.4 1.43 1.13-.18.8-1.05 1.13-1.97 1.13h-.35l.45-1.93h-1.55l-.65 2.83h2.19c1.65 0 3.21-.89 3.5-2.03.04-.2.04-.73-.09-1.04l-.01-.04c-.01-.01-.02-.06.01-.07l.04.03.03.06 1.4 4.04 3.55-4.1h1.86c1 0 1.61.4 1.44 1.13-.18.8-1.05 1.13-1.98 1.13h-.35l.45-1.93h-1.54l-.66 2.83h2.2c1.64 0 3.22-.89 3.48-2.03.27-1.13-.89-2.03-2.55-2.03h-3.27l-1.03 1.25zm-1.56 3.75c-4.17 0-7.55.5-7.55 1.1s3.38 1.1 7.55 1.1c4.18 0 7.57-.5 7.57-1.1s-3.39-1.1-7.57-1.1zm-.25 1.5c-.96 0-1.73-.17-1.73-.37s.77-.37 1.73-.37c.95 0 1.72.17 1.72.37s-.77.37-1.72.37z"/></svg>