<svg xmlns="http://www.w3.org/2000/svg" viewBox="564 3.22 16.01 9.54" xmlns:v="https://vecta.io/nano"><path d="M564 12.76h2.1v-1h-.55v-1.62l1.21 2.62h.73l1-2.54v1.54h-.37v1h2.5v-1h-.57V9.01h.57v-.9h-2.26l-1 2.36-1.1-2.36H564v.9h.53v2.75H564zm0-9.52v.97h.52v2.72H564v.94h2.71v-.94h-.55v-.7h1.58v-.96h-1.56V4.22h1.95v.9h1.3V3.24zm7.37.01l-.02 3.25h1.52v-.36a1 1 0 0 1 .05-.23.5.5 0 0 1 .09-.15.7.7 0 0 1 .15-.15.7.7 0 0 1 .2-.09c.07-.02.22-.04.82-.04l2.99.01-.83.52a2.33 2.33 0 0 0-.37.34l-.75 1.19-.22.48a13.07 13.07 0 0 0-.78 1.93c-.12.37-.23.77-.3 1.24-.06.47-.07 1.02-.09 1.57h2.96v-1a6.6 6.6 0 0 1 .14-1.26l.22-.93.27-.97.15-.56a5.94 5.94 0 0 1 .32-.8 3.57 3.57 0 0 1 .55-.75l.41-.45c.14-.14.27-.24.4-.32a1.05 1.05 0 0 1 .34-.19c.13-.04.26-.05.4-.06l.02-2.25-8.64.02z" fill="#85c20a"/></svg>