<svg xmlns="http://www.w3.org/2000/svg" viewBox="694 4.03 15.99 7.95" xmlns:v="https://vecta.io/nano"><path d="M694.069 11.838h1.33V6.209h-1.33zm.665-6.375c.413 0 .734-.31.734-.711a.72.72 0 0 0-.734-.722.72.72 0 0 0-.734.722c0 .401.321.711.734.711zm5.068-1.422c-2.236 0-3.623 1.525-3.623 3.967s1.376 3.955 3.623 3.955 3.634-1.513 3.634-3.955-1.399-3.967-3.634-3.967zm0 1.169c1.376 0 2.236 1.089 2.236 2.797s-.871 2.786-2.236 2.786c-1.376 0-2.236-1.078-2.236-2.786 0-1.72.871-2.797 2.236-2.797zm4.196 4.471c.057 1.41 1.215 2.293 2.981 2.293 1.857 0 3.015-.917 3.015-2.373 0-1.147-.654-1.789-2.213-2.144l-.883-.206c-.94-.229-1.33-.516-1.33-1.032 0-.631.585-1.055 1.456-1.055s1.479.424 1.536 1.147h1.307c-.023-1.353-1.147-2.27-2.832-2.27-1.674 0-2.855.917-2.855 2.293 0 1.089.665 1.766 2.087 2.087l.986.229c.975.229 1.364.55 1.364 1.101 0 .642-.642 1.101-1.571 1.101s-1.64-.459-1.72-1.169h-1.33z" fill="url(#a)"/></svg>