<svg xmlns="http://www.w3.org/2000/svg" viewBox="0 4.03 15.99 7.95"> <defs> <linearGradient id="a" x1=".65" x2="12.67" y1=".71" y2="6.06" gradientUnits="userSpaceOnUse"> <stop stop-color="#3367ff" offset="0"></stop> <stop stop-color="#8be250" offset=".71"></stop> <stop stop-color="#dbf141" offset="1"></stop> </linearGradient> </defs> <g transform="translate(0)"> <path transform="translate(0 3.95) scale(1.1465)" d="M.06 6.88h1.16V1.97H.06zm.58-5.56c.36 0 .64-.27.64-.62A.63.63 0 0 0 .64.07.63.63 0 0 0 0 .7c0 .35.28.62.64.62zM5.06.08C3.11.08 1.9 1.41 1.9 3.54s1.2 3.45 3.16 3.45 3.17-1.32 3.17-3.45S7.01.08 5.06.08zm0 1.02c1.2 0 1.95.95 1.95 2.44s-.76 2.43-1.95 2.43c-1.2 0-1.95-.94-1.95-2.43 0-1.5.76-2.44 1.95-2.44zM8.72 5c.05 1.23 1.06 2 2.6 2 1.62 0 2.63-.8 2.63-2.07 0-1-.57-1.56-1.93-1.87l-.77-.18c-.82-.2-1.16-.45-1.16-.9 0-.55.51-.92 1.27-.92s1.29.37 1.34 1h1.14c-.02-1.18-1-1.98-2.47-1.98-1.46 0-2.49.8-2.49 2 0 .95.58 1.54 1.82 1.82l.86.2c.85.2 1.19.48 1.19.96 0 .56-.56.96-1.37.96S9.95 5.62 9.88 5H8.72z" fill="url(#a)"></path> </g> </svg>