<svg xmlns="http://www.w3.org/2000/svg" viewBox="721.36 1.07 14.64 15" xmlns:v="https://vecta.io/nano"><path d="M736.005 14.85c-.882-1.195-1.556-2.474-1.538-4.147.037-3.373.37-9.628-5.533-9.636a9.88 9.88 0 0 0-.752.03c-6.596.535-4.846 7.542-4.944 9.888-.12 1.716-.64 3.453-1.874 5.016L736 16l.005-1.15z" fill="#4d4d4d"/><path d="M731.521 11.214c-.115-.225-.348-.44-.747-.604l-.002-.001c-.828-.357-1.187-.382-1.65-.684-.751-.486-1.373-.657-1.89-.654a2.2 2.2 0 0 0-.728.124c-.63.218-1.047.672-1.309.921v.001c-.052.05-.118.094-.279.212l-.752.56c-.31.234-.41.538-.303.894s.448.767 1.073 1.122l.002.001c.388.23.652.538.956.784.152.123.312.232.505.315s.417.139.698.155c.66.039 1.147-.16 1.576-.407s.794-.549 1.212-.685h.001c.857-.27 1.467-.812 1.658-1.326.096-.258.093-.502-.021-.728z" fill="#f3d427"/><path d="M729.349 12.485c-.682.357-1.477.79-2.324.79s-1.515-.393-1.996-.776c-.24-.192-.435-.382-.582-.52-.256-.204-.225-.488-.12-.48.176.023.202.255.313.36l.565.505c.455.362 1.06.714 1.82.714s1.642-.447 2.183-.752c.305-.172.695-.481 1.012-.716.244-.18.235-.395.435-.372s.053.24-.228.486-.721.574-1.078.76z" fill="#202020"/><path d="M723.707 16.07c.381-.962.596-1.981.637-3.015l.45.297h.001c.338.2.592.493.921.76a2.28 2.28 0 0 0 1.363.532l.176.005c.64 0 1.14-.21 1.557-.45.453-.26.814-.548 1.157-.66h.001c.724-.228 1.3-.631 1.627-1.1.27 1.067.71 2.36 1.187 3.59l-9.077.041zm7.89-7.425a2.83 2.83 0 0 1-.24 1.202 2.33 2.33 0 0 1-.335.563l-.583-.242-.34-.12c.077-.094.228-.204.285-.342.085-.208.127-.411.135-.654 0-.01.003-.018.003-.029a1.82 1.82 0 0 0-.094-.634 1.17 1.17 0 0 0-.29-.494c-.108-.116-.258-.185-.416-.19h-.021a.61.61 0 0 0-.406.16 1.17 1.17 0 0 0-.325.472 1.84 1.84 0 0 0-.135.655c-.002.01-.002.018-.002.028-.003.134.006.257.027.376-.3-.15-.683-.26-.948-.323a3.24 3.24 0 0 1-.027-.359v-.033c-.005-.441.067-.82.236-1.203s.377-.66.67-.884a1.47 1.47 0 0 1 .925-.331h.016c.335 0 .62.099.915.313a2.1 2.1 0 0 1 .687.872 2.82 2.82 0 0 1 .26 1.165c0 .011 0 .02.003.032zm-5.056.44c-.263.073-.514.187-.742.338a1.73 1.73 0 0 0 .006-.402l-.001-.023c-.016-.177-.059-.351-.127-.516-.055-.146-.144-.276-.259-.381a.42.42 0 0 0-.317-.12c-.113.01-.206.065-.294.173-.094.124-.159.267-.188.42a1.68 1.68 0 0 0-.035.552l.002.022c.019.194.057.355.126.518.064.166.171.311.311.421l-.274.213-.207.153a1.9 1.9 0 0 1-.43-.645 2.9 2.9 0 0 1-.24-1.026V8.78c-.02-.38.017-.708.121-1.047s.244-.585.447-.786.405-.304.651-.316l.057-.002c.222 0 .42.075.626.24.223.18.392.408.533.731a2.85 2.85 0 0 1 .238 1.027v.003a3 3 0 0 1-.004.456z" fill="#ccc"/><path d="M727.658 9.997c.029.09.174.075.259.12.073.037.133.121.216.124s.203-.028.213-.107c.014-.105-.138-.17-.236-.21-.125-.048-.286-.073-.404-.008-.027.016-.057.051-.048.08zm-.86 0c-.029.09-.174.075-.258.12-.074.037-.134.121-.217.124s-.203-.028-.213-.107c-.013-.105.138-.17.236-.21.126-.048.287-.073.404-.008.027.016.057.051.048.08z" fill="#202020"/></svg>