<svg xmlns="http://www.w3.org/2000/svg" viewBox="747.19 0.05 13.62 15.91" xmlns:v="https://vecta.io/nano"><path d="M747.89 5.8l.01-.02c.82-1.27 2.12-2 3.33-2 1.24 0 2.02.67 3.04.67 1 0 1.6-.68 3.03-.68 1.08 0 2.23.6 3.04 1.61a4.55 4.55 0 0 0-.6.42h-11.86zm8.32-3.17A3.5 3.5 0 0 0 757 .05c-.85.05-1.85.6-2.43 1.3-.52.65-.96 1.6-.79 2.52.93.03 1.89-.52 2.44-1.24z" fill="#4d9537"/><path d="M747.89 5.8c-.35.56-.6 1.34-.66 2.03h11.36c.12-.76.5-1.47 1.14-2.03H747.9z" fill="#ca8a02"/><path d="M747.29 9.87a7.73 7.73 0 0 1-.06-2.04h11.36a3.66 3.66 0 0 0 .26 2.04H747.3z" fill="#c35f09"/><path d="M747.84 11.9a9.6 9.6 0 0 1-.55-2.03h11.56a3.47 3.47 0 0 0 1.96 1.85l-.08.18h-12.89z" fill="#b01c1f"/><path d="M760.73 11.9a10.85 10.85 0 0 1-1.14 2.03h-10.67l-.1-.16c-.4-.6-.73-1.24-.98-1.87h12.89z" fill="#903b91"/><path d="M759.6 13.93c-.66.96-1.54 2.01-2.6 2.02-1.04.01-1.3-.67-2.71-.67-1.41.01-1.7.69-2.74.68-1.11-.01-1.98-1.05-2.63-2.03h10.67z" fill="#0092cc"/></svg>