<svg xmlns="http://www.w3.org/2000/svg" viewBox="798 3.8 16 8.4" xmlns:v="https://vecta.io/nano"><path d="M798 3.8h16v8.4h-16z"/><path d="M798.86 11.34l1.24-6.7h1.15l.6 2.92.61-2.92h1.08l1.02 4.93h2.47c.26 0 .28-.74-.02-.74l-1.44-.03c-.62 0-1.27-.91-1.24-2.13 0-1.13.72-2.01 1.63-2.01h3.68l.93 1.74.92-1.76 1.52.01-1.67 3.22 1.8 3.5-1.51-.01-1.05-2-1 2h-1.54l1.76-3.46-.77-1.53h-3.2c-.34.01-.33.77 0 .75l1.35.03c.57 0 1.37.82 1.35 2.08.01 1.48-.95 2.15-1.42 2.11l-3.52.01-.59-3.01-.58 3h-1.12l-.62-2.99-.53 3z" fill="#e4e4e4"/></svg>