<svg xmlns="http://www.w3.org/2000/svg" viewBox="824 4.5 16 7.01" xmlns:v="https://vecta.io/nano"><path d="M835.62 10.1c.4.26 1.25.46 1.9.46.73 0 1.03-.4 1.03-.88 0-.44-.28-.7-1.08-1.15-1.06-.62-1.84-1.1-1.84-2.2 0-1.13.94-1.8 2.37-1.8.77 0 1.04.07 1.53.21v1.08c-.48-.14-.9-.39-1.57-.39-.7 0-1 .35-1 .72 0 .53.46.78 1.27 1.23 1.14.64 1.77 1.13 1.77 2.2 0 1.11-.8 1.9-2.58 1.9a6.95 6.95 0 0 1-1.8-.21zm-3.8-4.62h-.85v5.06h.85c1.3 0 2.13-.88 2.13-2.52s-.82-2.54-2.13-2.54zm2.28 5.53c-.42.3-1.21.5-1.9.5h-2.67V4.53h2.65c.7 0 1.5.2 1.92.5 1.02.72 1.35 1.88 1.35 2.98s-.33 2.27-1.36 3z" fill="#b1b1b4"/><path d="M827.68 7.66s1.24-.3 1.24-1.5c0-1.18-1.32-1.66-2.73-1.66-1.26 0-2.1.24-2.1.24V5.8c.58-.22 1.13-.4 1.88-.4.8 0 1.42.37 1.42.9 0 .63-.6 1-1.92 1h-.6v.96h.56c1.38 0 2.16.32 2.16 1.1 0 .7-.7 1.14-1.57 1.14-.76 0-1.46-.26-2.02-.5v1.15c.27.07.99.3 2.33.3 1.48 0 2.77-.74 2.77-2.05 0-1.1-.9-1.75-1.42-1.75z" fill="#d0000f"/></svg>