<svg xmlns="http://www.w3.org/2000/svg" xmlns:xlink="http://www.w3.org/1999/xlink" viewBox="1007.14 0 13.02 16" xmlns:v="https://vecta.io/nano"><path d="M1013.91 1.1a.5.5 0 1 1-1 0 .5.5 0 1 1 1 0zm-.51 11.69l-3.47-1.98.94-.5c.69 1 2.07 1.08 3.16.98.65-.2-.13.25-.1.43.13.34.51.14.7.09.46-.27.93-.57 1.22-1.1.16-.48.1-.22.47-.63.35-.36.38-.92.78-1.23.43-.39.63-.94.86-1.46.78-.72 1.5-1.67 1.47-2.78.04-.85-.48-1.6-1.1-2.12a7.49 7.49 0 0 0-3.64-1.47c-.3-.1-.6.25-.39.52.6.24 1.26.24 1.86.49.95.35 1.93.88 2.45 1.8.44.89-.02 1.97-.7 2.61l-.02.03a3.76 3.76 0 0 0-.92-1.12 6.5 6.5 0 0 0-3.57-1.13v-2.4l-6.26 3.38v7.12h.01v.13l6.26 3.55 6.25-3.56V9.23zm0-5.44c.71.04 1.44.15 2.05.53.08.06.18.1-.06.17a9.7 9.7 0 0 1-1.24.24l-.56.02h-.19zm-.44 1.83c.38-.04.77-.02 1.13.07.21.06.48.06.62.26-.7.12-1.42.13-2.12.09l-.32-.05zm.38 1.48c-.62-.03-1.35-.08-1.8-.57a7.3 7.3 0 0 0 3.8-.06c-.53.48-1.3.61-2 .63zm2.24-1.48c-.17-.2-.4-.32-.63-.38l1.12-.31c.21.39-.16.6-.49.7zm1.2-3.15c.29.26.44.62.54.99l-.69.46c-.16.05-.34.25-.5.08a4.94 4.94 0 0 0-2.73-.89V4.9c1.2.02 2.47.3 3.37 1.13z" fill="#666"/><g fill="#01015b"><use xlink:href="#B"/><path d="M1014.41.5a.5.5 0 1 1-1 0 .5.5 0 1 1 1 0zm-.51 14.78l-6.25-3.56V8.51l6.26 3.56z"/></g><path d="M1013.9 15.28l6.26-3.56V8.51l-6.25 3.56z" fill="#f00020"/><path d="M1007.64 11.6l6.26-3.38V1.1l-6.26 3.38z" fill="#cb9a01"/><g fill="#3737fd"><use xlink:href="#B"/><path d="M1014.41.5a.5.5 0 1 1-1 0 .5.5 0 1 1 1 0zm-.51 14.78l-6.25-3.56V8.51l6.26 3.56z"/></g><path d="M1013.9 15.28l6.26-3.56V8.51l-6.25 3.56z" fill="#cc001b"/><defs ><path id="B" d="M1014.8.82c-.2-.27.1-.63.4-.51 1.29.2 2.6.62 3.62 1.46.63.52 1.15 1.27 1.1 2.12.03 1.11-.68 2.06-1.46 2.78-.23.52-.43 1.07-.86 1.46-.4.31-.43.87-.78 1.23-.38.41-.3.15-.47.64a3 3 0 0 1-1.23 1.09c-.18.05-.56.25-.68-.08-.04-.19.74-.65.09-.44-1.1.1-2.47.03-3.15-.97-.13-.3-.11-.4-.11-.57-.5-.36-.85-.9-.8-1.53-.55-.38-1.07-.92-1.1-1.63-.09-.69.45-1.25 1-1.58a6.8 6.8 0 0 1 3.52-.79c1.25.08 2.56.35 3.58 1.13.4.29.67.7.92 1.12l.02-.03c.68-.64 1.14-1.72.7-2.62a4.48 4.48 0 0 0-2.45-1.79c-.6-.25-1.26-.25-1.86-.49zm-4.46 4.32c-.63.5-.17 1.51.47 1.71.86-.7 2-.9 3.08-.9.97.06 1.96.28 2.74.89.16.17.34-.03.5-.07l.7-.47a1.9 1.9 0 0 0-.56-.98 5.06 5.06 0 0 0-3.37-1.13c-1.23-.03-2.58.13-3.56.95zm4.3 2.43a9.68 9.68 0 0 0 1.25-.24c.24-.07.14-.1.06-.17a4.28 4.28 0 0 0-2.04-.53c-.77 0-1.58.08-2.27.46-.07.05-.3.09 0 .17.67.23 2.3.33 2.45.33l.56-.02zm-3.52.25c.06.16.19.4.44.55.1-.07.27-.15.41-.22l.28-.15h-.25c-.31-.04-.58-.1-.88-.18zm4.33.26c.24.07.46.17.63.38.33-.09.7-.3.5-.7l-1.13.32zm-3.09.64c.21.12.5.11.73.16.7.05 1.42.03 2.12-.09-.14-.2-.4-.2-.62-.26a3.94 3.94 0 0 0-2.23.19zm-.33.65c.46.49 1.19.54 1.81.57.7-.02 1.47-.15 2-.63a7.26 7.26 0 0 1-3.8.06z"/></defs></svg>