<svg xmlns="http://www.w3.org/2000/svg" viewBox="1136 1.91 16 12.16" xmlns:v="https://vecta.io/nano"><path d="M1137.2 12.27c-1.26-.35-1.47-1.08-.9-1.5a6.18 6.18 0 0 1 1.44-.68l3.74-1.3v1.48l-2.7.95c-.47.17-.54.4-.15.53.38.12 1.08.09 1.55-.08l1.3-.46v1.33l-.26.04a8.6 8.6 0 0 1-4.02-.31zm7.88.15l4.2-1.46c.47-.17.54-.4.16-.53a2.88 2.88 0 0 0-1.56.08l-2.8.97V9.94l.16-.06a10.08 10.08 0 0 1 1.95-.4 8.45 8.45 0 0 1 3.61.42c1.23.38 1.37.95 1.06 1.33-.31.39-1.08.66-1.08.66l-5.7 2.01zm.5-9.53c2.2.75 2.95 1.68 2.95 3.77 0 2.04-1.28 2.81-2.9 2.04V4.9c0-.45-.09-.86-.51-.98-.33-.1-.53.2-.53.65v9.5l-2.6-.8V1.91c1.1.2 2.71.68 3.58.97z" fill="#999"/></svg>