<svg xmlns="http://www.w3.org/2000/svg" xmlns:xlink="http://www.w3.org/1999/xlink" viewBox="1214.01 2.81 15.97 10.39" xmlns:v="https://vecta.io/nano"><g transform="matrix(1.14286 0 0 1.14286 1214 2.78)"><use xlink:href="#B" fill="#ccc"/><use xlink:href="#B" fill="#717171"/><g stroke-width=".12" stroke="#000"><path d="M12.28 3.57h.29v.01c.2.12.3.24.3.38-.06.22-.28.47-.63.74-.42.3-1 .63-1.7.96-1.8.86-1.46 1.76.44.95a10.5 10.5 0 0 0 1.9-1.09c.6-.47.95-.91 1.01-1.34a1.1 1.1 0 0 0-.3-1.11c-.12-.13-1.37.5-1.31.5zM4.33 7.46l-1.55.14h-.01c-.39 0-.68-.03-.87-.1a.47.47 0 0 0-.4.02.48.48 0 0 0-.27.29.5.5 0 0 0 .01.4c.06.13.16.22.29.28.28.1.69.15 1.26.15.47 0 1.03-.05 1.68-.15l.33-.04Z" fill="#252525"/><path d="M2.52 2.78h.01a7.5 7.5 0 0 0-1.38.86 3.1 3.1 0 0 0-.9.98C.02 5.08 0 5.49.2 5.87c.12.38.5.58 1.13.61.37.03.86-.02 1.49-.14l1.08-.27c.24-.06-.05-1.07-.29-1l-1 .24c-.51.1-.91.14-1.22.13l-.24-.01-.01-.01a.37.37 0 0 1 .04-.3c.12-.2.32-.42.61-.65.32-.25.73-.5 1.21-.75 2.87-1.13 3.02-2.56-.48-.93z" fill="#f1f1f1"/></g><path d="M1.15 5.42l-.01-.01a.37.37 0 0 1 .04-.3c.12-.2.32-.42.61-.65A14.3 14.3 0 0 1 3 3.71l.55-.85-1.23.6C.12 4.93.79 5.22.72 6.31c.35.1.2.16 1.15.01.08-.01-.78-.8-.72-.9z" fill="#2f2f2f"/><circle cx="7.03" cy="4.57" fill="url(#d)" stroke="#33317a" stroke-width=".24" r="4.44"/><path d="M2.57 5.31c-.05.01-1.4.3-1.62.08-.06-.06.15.1.36.38.02.03 0 .09-.03.16l-.02.04-.01.05c0 .03-.02.05-.03.07 0 .08-.05.14-.06.19l.02.05c0 .01-.04.02-.03.03l-.04.03v.01l.1.02c.02 0 .14.02.3.02a5.03 5.03 0 0 0 .92-.07l.37-.05c.09-.02.13 0 .14 0a31.21 31.21 0 0 0 3.8-1.12l2.08-.68a49.25 49.25 0 0 1 2.57-.77 6.37 6.37 0 0 1 .68-.14c.24-.03.41-.04.5-.02.07.05.4.01.55.26.26.4.4 1.1.5.96.15-.21.24-.41.27-.61.16-.58-.1-1.05-.77-1.47-.2-.17-.6-.21-1.19-.13a7.93 7.93 0 0 0-.85.17l-.7.16a39.4 39.4 0 0 0-1.9.6l-2.07.67-1.52.5z" fill="#b9b9b9" stroke-width=".12" stroke="#000"/></g><defs ><path id="B" d="M9.49 1.76a13.88 13.88 0 0 1 2.67-.09.52.52 0 0 0 .46-.85.49.49 0 0 0-.35-.18A9.58 9.58 0 0 0 10.4.62L9.02.77c-.22.03.16 1.02.47.99z"/></defs></svg>