<svg xmlns="http://www.w3.org/2000/svg" viewBox="1319 1 14 14" xmlns:v="https://vecta.io/nano"><path fill="#cc0010" d="M1320.1 2.09h4.52v11.78h-4.52z"/><path d="M1322.25 3.9a1.74 1.74 0 0 0-.61.3c-.3.27-.46.64-.43 1.08 0 .23.02.3.11.48.14.28.35.49.63.63.2.1.24.1.5.11.22.01.3 0 .46-.05a1.31 1.31 0 0 0 .9-1.45 1.33 1.33 0 0 0-1.56-1.1zm4.95-2.88l-.03 6.98.05 6.98c.08.03 2.33.02 2.6 0a3.62 3.62 0 0 0 3-2.43c.19-.54.18-.4.18-4.56l-.05-4.04a3.6 3.6 0 0 0-2.95-2.9c-.2-.05-.5-.05-1.52-.05l-1.29.02z" fill="#818990"/><rect x="1328.63" y="7.41" width="2.56" height="2.67" fill="#cc0010" ry="1.28"/><path d="M1322 1.05a3.62 3.62 0 0 0-2.87 2.63c-.13.5-.14.78-.13 4.58l.06 3.84a3.63 3.63 0 0 0 2.83 2.83c.19.04.43.05 2 .06l1.83-.03c.05-.05.05-.6.05-6.95l-.03-6.96c-.02-.05-.07-.05-1.77-.05l-1.97.05zm2.62 6.95v5.88l-1.18-.02a6.1 6.1 0 0 1-1.42-.07 2.46 2.46 0 0 1-1.82-1.9c-.06-.29-.06-7.5 0-7.79a2.51 2.51 0 0 1 1.5-1.8c.38-.15.56-.16 1.8-.17h1.12z" fill="#818990"/></svg>