<svg xmlns="http://www.w3.org/2000/svg" xmlns:xlink="http://www.w3.org/1999/xlink" viewBox="1579 1 14 13.84" width="14" height="13.843" xmlns:v="https://vecta.io/nano"><defs><radialGradient id="A" cx="23.69" cy="12.77" r="14.35" gradientTransform="matrix(0 1.8458 -1.5756 0 41.66 -29.48)" xlink:href="#G"><stop stop-color="#fff" offset="0"/><stop stop-color="#fff" stop-opacity="0" offset="1"/></radialGradient><radialGradient id="B" cx="23.69" cy="12.77" r="14.35" gradientTransform="matrix(0 1.1525 -.98381 0 34.1 -13.06)" xlink:href="#G"><stop stop-color="#fff" offset="0"/><stop stop-color="#666" stop-opacity="0" offset="1"/></radialGradient><linearGradient id="C" x1="6.308" y1="8.539" x2="5.071" y2="7.679" xlink:href="#G"><stop stop-color="#e5edae" offset="0"/><stop stop-color="#249b47" offset="1"/></linearGradient><linearGradient id="D" x1="7.681" y1="6.886" x2="7.991" y2="3.585" xlink:href="#G"><stop stop-color="#e6edae" offset="0"/><stop stop-color="#459743" offset="1"/></linearGradient><linearGradient id="E" x1="10.08" y1="9.83" x2="11.87" y2="8.38" xlink:href="#G"><stop offset="0" stop-color="#e6edae"/><stop offset="1" stop-color="#359644"/></linearGradient><linearGradient id="F" x1="8.761" y1="6.75" x2="8.036" y2="3.725" xlink:href="#G"><stop stop-color="#e6eead" offset="0"/><stop stop-color="#46873f" offset="1"/></linearGradient><linearGradient id="G" gradientUnits="userSpaceOnUse"/></defs><g transform="translate(1578)"><g transform="matrix(.4878 0 0 .46892 -3.38 -.23)"><ellipse cx="23.33" cy="17.39" rx="14.35" ry="14.76" fill="#666"/><ellipse cx="23.33" cy="17.39" rx="14.35" ry="14.76" fill="url(#A)"/><ellipse cx="23.33" cy="17.39" rx="14.35" ry="14.76" fill="url(#B)"/></g><path d="M6.23 4.89c-.77.94-4.01 4.74-3.72 7.32.2.25.42.49.65.71-.03-1.97 2.28-4.08 4.08-5.67Z" fill="url(#C)"/><path d="M4.34 2.03c-.4.24-.78.53-1.13.84a5.3 5.3 0 0 1 2.84 2c.53.83.82 1.6 1.2 2.38l.79-.66V3.18a6.89 6.89 0 0 0-3.7-1.15z" fill="url(#D)"/><path d="M9.78 4.89c.77.94 4 4.74 3.72 7.32-.2.25-.42.49-.65.71.03-1.97-2.28-4.08-4.09-5.67z" fill="url(#E)"/><path d="M11.66 2.02c.4.25.78.53 1.12.85a5.29 5.29 0 0 0-2.82 2c-.54.83-.82 1.6-1.2 2.38l-.79-.66V3.17a6.85 6.85 0 0 1 3.68-1.15h.01z" fill="url(#F)"/></g></svg>