<svg xmlns="http://www.w3.org/2000/svg" viewBox="1630 4.07 16 7.86" xmlns:v="https://vecta.io/nano"><path d="M1630 4.07h16v7.86h-16z" fill="#0f7a10"/><path fill="#fff" d="M1641.21 8.2l.68-.93a1.92 1.92 0 0 1-.63-.27.71.71 0 0 1-.28-.6.68.68 0 0 1 .3-.6c.27-.16.57-.23.88-.21 1.19 0 1.5.62 1.7.89l.65-.88a1.98 1.98 0 0 0-.4-.46c-.45-.37-1.1-.55-1.97-.55a2.8 2.8 0 0 0-1.78.5 1.6 1.6 0 0 0-.64 1.34c0 .9.5 1.46 1.49 1.77zm3.28-.05c-.3-.26-.76-.47-1.39-.62l-.68.94a2.75 2.75 0 0 1 1 .41c.2.13.3.36.3.59a.81.81 0 0 1-.35.7 1.63 1.63 0 0 1-.98.24c-.99 0-1.46-.32-1.93-1.18l-.68.94c.12.25.3.47.5.65.5.4 1.18.6 2.07.6a3.2 3.2 0 0 0 1.95-.53c.46-.35.73-.9.7-1.49a1.6 1.6 0 0 0-.51-1.25zm-5.89 3.12h-.29V4.73h.29zm-7.61 0h1.4l1.09-1.47-.7-.97zm6.16-6.54h-1.4l-.88 1.2.7.97zm-4.56 0h-1.39l4.75 6.54h1.4z"/></svg>