<svg xmlns="http://www.w3.org/2000/svg" viewBox="0.01 0.01 15.99 15.99" xmlns:v="https://vecta.io/nano"><circle cx="8" cy="8" r="7.41" fill="none" stroke="#e44" stroke-width="1.17"/><path d="M9.96 4.55c1.16-.45 1.82.76 1.44 1.58a64 64 0 0 1-2.33 2.35c-.36.2-.84.21-1.16.03-.6-.4-1.4.36-.79.84.92.66 2 .5 2.82-.1l2.24-2.28c.8-1.03.53-2.53-.38-3.24-.85-.5-1.58-.6-2.36-.19-.88.63-1.03.88-1.87 1.73.46.02.84.12 1.3.28l1.09-1zm-3.92 6.9c-1.16.45-1.82-.76-1.44-1.58a64 64 0 0 1 2.33-2.35c.36-.2.84-.21 1.16-.03.6.4 1.4-.36.79-.84-.92-.66-2-.5-2.82.1L3.82 9.03a2.38 2.38 0 0 0 .38 3.24c.85.5 1.58.6 2.36.19.88-.63 1.03-.88 1.87-1.73a4.38 4.38 0 0 1-1.3-.28l-1.09 1z" fill="#e44"/></svg>