<svg xmlns="http://www.w3.org/2000/svg" viewBox="26.01 0 16.01 16.01"><g xmlns="http://www.w3.org/2000/svg" transform="translate(26)"><g fill="#e44" data-darkreader-inline-fill="" style="--darkreader-inline-fill: #9f0e0e;"><path d="M8 .01a8 8 0 1 0 .02 16A8 8 0 0 0 8 0zM8 15A7 7 0 1 1 8.01.99a7 7 0 0 1-.01 14z"/><path d="M8.13 10.78c-.47-.1-.95.38-.85.85.06.3.32.55.62.6.2 0 .42-.04.57-.18.24-.2.35-.54.21-.82a.76.76 0 0 0-.55-.45Zm2.22-1.31a3.22 3.22 0 0 0-3.08-1 3.21 3.21 0 0 0-1.64 1.02.56.56 0 0 0 .01.64c.14.18.36.29.58.26.32-.06.48-.39.75-.53a2.02 2.02 0 0 1 1.83-.12c.2.11.4.2.55.38.17.2.45.35.7.24.3-.1.51-.46.37-.76l-.07-.13Z"/><path d="M11.85 7.7c-.22-.2-.43-.42-.68-.58a6.18 6.18 0 0 0-1.47-.77c-.32-.08-.64-.2-.98-.2-.33-.08-.67-.04-1-.05-.35.01-.7.05-1.03.14A5.13 5.13 0 0 0 4.14 7.7c-.2.23-.16.58.05.78.2.21.55.24.78.04.4-.35.82-.7 1.33-.9.5-.22 1.05-.36 1.6-.35a3.8 3.8 0 0 1 1.61.26c.47.17.92.42 1.3.76.19.17.41.4.7.36.3-.07.56-.36.5-.69 0-.11-.08-.2-.16-.26Z"/><path d="M13.46 6.12c-.2-.35-.58-.56-.88-.82a7.78 7.78 0 0 0-9.9.64c-.34.3-.2.88.23 1 .41.13.7-.3 1-.52a6.56 6.56 0 0 1 8.57.34c.27.32.8.27.99-.11.1-.16.07-.37 0-.53Z"/></g></g></svg>