<svg xmlns="http://www.w3.org/2000/svg" viewBox="52.04 0.04 15.91 15.91"><g xmlns="http://www.w3.org/2000/svg" transform="translate(52)"><g fill="none" stroke="#e44" data-darkreader-inline-stroke="" style="--darkreader-inline-stroke: #ef4d4d;"><path stroke-linejoin="bevel" stroke-width=".87" d="M5.97 7.78q.45.1.7.48.26.37.26.9 0 .84-.48 1.3-.47.44-1.52.44-.35 0-.72-.1-.38-.12-.78-.35v-.4q.32.27.7.4.37.15.76.15.8 0 1.24-.37.42-.36.42-1.06 0-.57-.4-.9-.4-.31-1.1-.31H4.4v-.32h.68q.65 0 1-.26.34-.26.34-.75 0-.59-.35-.9-.36-.32-1.02-.32-.3 0-.66.1-.36.12-.79.35v-.4q.43-.18.8-.26.39-.1.72-.1.86 0 1.27.39.41.39.41 1.06 0 .44-.22.78-.2.33-.61.45zM8.4 5.2h.43l1.57 2.35 1.57-2.35h.44l-1.8 2.67 1.95 2.93h-.44l-1.75-2.64-1.76 2.64h-.43l1.98-2.96z"/><circle cx="8" cy="8" r="7.36" stroke-width="1.19"/></g></g></svg>