<svg xmlns="http://www.w3.org/2000/svg" viewBox="104 0.01 15.99 15.99" xmlns:v="https://vecta.io/nano"><circle cx="112" cy="8" r="7.41" fill="none" stroke="#e44" stroke-width="1.17"/><path fill="#e44" d="M117.3 6.54a2.89 2.89 0 0 0-1.05-.87l-.15-.07-.02-.11a3 3 0 0 0-.06-.4c-.2-1.15-.84-2-1.78-2.38-.71-.28-1.5-.3-2.2-.07-.36.12-.8.4-1.08.67l-.12.1-.16-.07a2.24 2.24 0 0 0-2.53.41c-.21.2-.34.37-.47.63a2.16 2.16 0 0 0-.21 1.4c0 .07 0 .08-.1.14a2.54 2.54 0 0 0-.85 3.08c.2.44.56.81 1 1.04.23.11.64.24.95.27.1.02.24.01.46.02h.43V9.24h-.42c-.5 0-.65-.02-.9-.15-.31-.14-.5-.35-.6-.66a1.9 1.9 0 0 1 0-.82c.11-.43.43-.8.87-1l.13-.06-.03-.08a1.74 1.74 0 0 1 1.19-2.23c.22-.06.66-.06.89 0 .2.06.45.18.61.32l.14.11.1-.15a1.92 1.92 0 0 1 2.08-.93c1.69.34 1.71 2.73 1.71 2.73s1.4.13 1.47 1.43c.05.99-.4 1.23-.79 1.4-.19.07-.38.1-.8.1h-.37v1.07h.47c.5-.02.69-.05 1.03-.17a2.3 2.3 0 0 0 1.55-2.08c.02-.6-.1-1.05-.4-1.52zm-4.77 1.26h-1.04v2.99h-1.52l2.09 2.73 2-2.73h-1.5l-.01-3z"/></svg>