<svg xmlns="http://www.w3.org/2000/svg" viewBox="155.99 0 16.01 16.01"><g xmlns="http://www.w3.org/2000/svg" transform="translate(156)">
<circle cx="8" cy="8" r="7.6" fill="none" stroke="#0c0" stroke-width=".81" data-darkreader-inline-stroke="" style="--darkreader-inline-stroke: #3dff3d;"/>
<path fill="#0c0" d="M10.55 6.89V4.82c0-1.19-1.23-2.26-2-2.35a2.55 2.55 0 0 0-3 1.85c-.06.26-.05.43-.07.66h.95c.1 0 .12-.04.13-.13.04-.43.15-.72.4-.98.89-.82 2.33-.28 2.57.77.2.84.14 1.24.14 2.25l-4.61.03c-.69 0-1.1.56-1.1 1.1l.44 4.6c.07.55.3.97.78.96h5.46c.6 0 .8-.38.91-.97l.46-4.6c.1-.59-.15-1.05-.72-1.09l-.74-.03zm-.06 5.6H5.5l-.4-4.47h5.78l-.4 4.48z" data-darkreader-inline-fill="" style="--darkreader-inline-fill: #00a300;"/>

</g></svg>