<svg xmlns="http://www.w3.org/2000/svg" viewBox="384 0.09 15 14.82" fill="#b60700" xmlns:v="https://vecta.io/nano"><path d="M395.57 1.8a3.4 3.4 0 0 0-2.9 1.67 3.4 3.4 0 0 0-2.9-1.66 3.22 3.22 0 0 0-1.26.25l.85.87a3 3 0 0 1 .42-.05c.81.01 1.56.45 1.98 1.15l.91 1.51.92-1.51a2.32 2.32 0 0 1 1.98-1.15 2.42 2.42 0 0 1 2.35 2.48c0 1.04-.88 2.53-2.05 4.07l.76.77C397.9 8.57 399 6.76 399 5.36a3.5 3.5 0 0 0-3.43-3.55zm-.71 8.87l-2.19 2.32c-2.27-2.21-5.25-5.73-5.25-7.63 0-.6.22-1.2.62-1.65a1.9 1.9 0 0 0-.88-.64 3.6 3.6 0 0 0-.81 2.29c0 3.4 6.32 9.1 6.32 9.1s1.19-1.07 2.53-2.56c.21-.23-.27-1.32-.34-1.23z"/><path d="M384 .99l.9-.9 13.9 13.92-.9.9z"/></svg>