<svg xmlns="http://www.w3.org/2000/svg" viewBox="359 0.35 15 14.3"><g xmlns="http://www.w3.org/2000/svg" transform="translate(359)"><g fill="#ffe700" opacity=".9" data-darkreader-inline-fill="" style="--darkreader-inline-fill: #998b00;"><path d="M8.74 8.47A1.25 1.25 0 0 1 7.5 9.72a1.25 1.25 0 0 1-1.25-1.25A1.25 1.25 0 0 1 7.5 7.22a1.25 1.25 0 0 1 1.25 1.25z"/><path d="m15 5.83-5-1.02L7.5.35 5 4.81 0 5.82l3.46 3.75-.6 5.08 4.63-1.96 4.64 1.96-.59-5.07L15 5.83zm-7.5 5.7-3.38 1.43.44-3.72-2.51-2.75 3.63-.73L7.5 2.53l1.82 3.24 3.63.72-2.51 2.72.44 3.77z"/></g></g></svg>