<svg xmlns="http://www.w3.org/2000/svg" viewBox="384 0.09 15 14.82"><g xmlns="http://www.w3.org/2000/svg" transform="translate(384)"><g fill="#b60700" data-darkreader-inline-fill="" style="--darkreader-inline-fill: #920600;"><path d="M11.57 1.8a3.4 3.4 0 0 0-2.9 1.67 3.4 3.4 0 0 0-2.9-1.66c-.43 0-.86.08-1.26.25l.85.87a3 3 0 0 1 .42-.05c.81.01 1.56.45 1.98 1.15l.91 1.51.92-1.51a2.32 2.32 0 0 1 1.98-1.15 2.42 2.42 0 0 1 2.35 2.48c0 1.04-.88 2.53-2.05 4.07l.76.77C13.9 8.57 15 6.76 15 5.36a3.5 3.5 0 0 0-3.43-3.55zm-.71 8.87a35.6 35.6 0 0 1-2.19 2.32C6.4 10.78 3.42 7.26 3.42 5.36c0-.6.22-1.2.62-1.65a1.9 1.9 0 0 0-.88-.64 3.6 3.6 0 0 0-.81 2.29c0 3.4 6.32 9.1 6.32 9.1s1.19-1.07 2.53-2.56c.21-.23-.27-1.32-.34-1.23z"/><path d="m0 .99.9-.9 13.9 13.92-.9.9z"/></g></g></svg>