<svg xmlns="http://www.w3.org/2000/svg" viewBox="409 0 15 15"><g xmlns="http://www.w3.org/2000/svg" transform="translate(409)"><g fill="#fff" opacity=".9" data-darkreader-inline-fill="" style="--darkreader-inline-fill: #181a1b;"><path d="M6.75 10.5h1.5V12h-1.5z"/><path d="M7.5 0a7.5 7.5 0 1 0 0 15 7.5 7.5 0 0 0 0-15zm0 13.64a6.14 6.14 0 1 1 0-12.28 6.14 6.14 0 0 1 0 12.28z"/><path d="M10.42 5.29A3 3 0 0 0 4.5 6H6a1.5 1.5 0 0 1 3 .25A1.56 1.56 0 0 1 7.42 7.5c-.37 0-.67.3-.67.67v1.58h1.5v-.86a3 3 0 0 0 2.17-3.6z"/></g></g></svg>