<svg xmlns="http://www.w3.org/2000/svg" viewBox="1709.08 0 13.82 16" xmlns:v="https://vecta.io/nano"><path fill="#eaeaea" d="M1709.64.73h12.72v14.55l-12.72-.02V.73"/><path d="M1711.27 2h2.73v.55h-2.73V2zm0 1.45h2.73V4h-2.73v-.55zm0 1.45h2.73v.55h-2.73v-.54zm0 1.46h2.73v.55h-2.73v-.55zm0 1.46h2.73v.54h-2.73v-.54zM1709.1 0h13.8v13.08l-.53.02V16h-12.74v-2.9l-.55-.02V0m.55.73v11.82h.72v2.72h11.28v-2.72h.72V.73h-1.09v10.36h-6.71V.73h-4.91m1.63 8.54h2.73v.55h-2.73v-.55zm0 1.46h2.73v.54h-2.73v-.54zm0 1.45h2.73v.55h-2.73v-.55zm0 1.46h2.73v.54h-2.73v-.54z" fill="#706f6f"/><path fill="#939292" d="M1714.9.73h6v10h-6v-10z"/></svg>