<svg xmlns="http://www.w3.org/2000/svg" viewBox="1760.27 0.03 15.46 15.96" fill="#b5b5b5" xmlns:v="https://vecta.io/nano"><path d="M1765.13.75c.16-.35.5-.61.88-.68l4.81-.02v5.04h1.83c.15.02.34.02.41.18.02.15-.08.27-.16.4l-4.42 5.73c-.13.16-.32.35-.55.29-.25-.08-.4-.33-.55-.53l-4.24-5.44c-.09-.13-.22-.28-.2-.45.06-.17.26-.16.41-.17l1.66-.01V1.5c0-.25 0-.52.12-.76zm-4.23 10.26c.38-.1.78-.04 1.16-.04v3.19h11.87v-3.2c.4 0 .79-.04 1.17.05.32.09.52.4.63.69v3.9c-.1.22-.3.38-.54.36-5.17-.1-10.1.13-14.58-.03-.17-.03-.26-.19-.34-.32v-3.9c.1-.3.3-.61.63-.7z"/></svg>