<svg xmlns="http://www.w3.org/2000/svg" viewBox="1786.3 -0.02 15.4 16.02" xmlns:v="https://vecta.io/nano"><path fill="#b5b5b5" d="M1789.8 0c1.5 0 2.8.8 3.8 1.9.4.6-.1 1.3-.8 1.4-1.2.4-2.7.5-3.9 0-1-.7-1-2.2 0-3 .2-.1.6-.3 1-.3zm0 1.2c-.7.1-.5 1.3.3 1.2h2c0-.7-.8-.7-1.2-1a3 3 0 0 0-1-.2zM1798 0c1.3-.2 2.4 1.6 1.6 2.7s-2.3 1-3.5.9c-.9 0-2.3-.7-1.6-1.8a5.6 5.6 0 0 1 3.4-1.8zm-2.4 2.3c1 .1 2.3.5 3-.5-.4-1.1-1.8-.4-2.4 0l-.6.5zm-8.8 2c.7-.2 1.3-.1 2-.1h4.5V8h-6.1c-.4.1-.7-.2-.9-.5V4.8c.2-.2.3-.5.5-.5zm7.9-.1h6.5l.5.6v2.7c-.2.2-.3.5-.6.5h-6.4V4.2zm-7.5 5.1c.2-.4.7-.5 1-.4h5.1V16h-5.5c-.3-.1-.6-.3-.6-.6V9.3zm7.5-.3c.9-.2 1.8-.1 2.8-.1h2.7a.65.65 0 0 1 .6.6v6c-.1.3-.4.4-.6.5h-5.5V9z"/></svg>