<svg xmlns="http://www.w3.org/2000/svg" viewBox="1814.43 0.23 11.14 15.58" fill="#b5b5b5" xmlns:v="https://vecta.io/nano"><path d="M1819.35.25a5.6 5.6 0 0 1 3.12.62c.18.32-.2.65-.25.99l-.62 1.53c-.9.01-1.79-.03-2.68-.04-.48.07-.44-.52-.6-.83-.1-.45-.48-.93-.44-1.36.32-.5.88-.81 1.46-.9z"/><path d="M1815.96 2.04c.2.06.34.26.52.37l1.53 1.23c.03.14-.07.53.14.3.15-.18.34-.32.58-.26l2.71.05c.18.1.42.27.5.43-.12.14-.22.32-.37.42l-3.15-.06c-.22-.09-.3-.4-.53-.5l-2.26-1.4c.05-.2.23-.4.33-.6zm-.23 2.16c.13-.03.26 0 .4 0l1.46.09c.09 0 .17 0 .25.02l.18.42c-.2.03-.4.03-.61.06l-1.87.18.19-.78zm2.76.5c.03-.02.08-.01.12-.01l2.74.1c.07 0 .12.05.17.1.85.68 1.63 1.46 2.33 2.3.48.6.92 1.24 1.24 1.94a4.44 4.44 0 0 1 .3 3.26 4.28 4.28 0 0 1-2.19 2.77c-.25.13-.53.2-.8.3a9 9 0 0 1-5.47-.16 3.98 3.98 0 0 1-1.23-.65 3.23 3.23 0 0 1-1.03-1.45c-.32-.9-.3-1.88-.08-2.8.02-.16.03-.31.07-.47a6.4 6.4 0 0 1 .8-1.8 16.1 16.1 0 0 1 2.87-3.3c.05-.04.1-.1.16-.13m1.06 1.38c-.04.17 0 .34-.02.51-.58.07-1.18.18-1.7.48-.41.24-.78.6-.95 1.07-.15.42-.16.9.02 1.31.2.43.58.74 1 .95.5.26 1.07.37 1.63.44v1.95c-.05.02-.1 0-.16-.01-.43-.08-.87-.2-1.21-.48-.15-.12-.22-.31-.4-.4a.74.74 0 0 0-.9.19.5.5 0 0 0 0 .58 2 2 0 0 0 .61.62 4.3 4.3 0 0 0 1.8.65l.26.04v.42c.01.11.09.21.17.29.22.16.57.12.72-.12.13-.17.03-.4.09-.58a4.6 4.6 0 0 0 1.83-.5c.42-.25.77-.6.95-1.06a1.9 1.9 0 0 0-.08-1.5c-.23-.4-.63-.7-1.06-.88a5.34 5.34 0 0 0-1.65-.33c-.02-.17 0-.35-.01-.52V7.76c.3 0 .57.06.85.15.26.09.52.2.72.4.1.1.17.24.3.33a.71.71 0 0 0 .88-.08.5.5 0 0 0 .11-.58c-.1-.2-.26-.38-.43-.53a4.01 4.01 0 0 0-2.22-.84c-.07 0-.15 0-.2-.03-.03-.2.05-.44-.1-.6-.2-.3-.73-.24-.85.1z"/><path d="M1818.28 8.16c.35-.28.8-.36 1.24-.41.02.04.01.08.01.12V9.7c-.14 0-.27-.03-.4-.05a2.06 2.06 0 0 1-.82-.28.67.67 0 0 1-.28-.34.8.8 0 0 1 .25-.86zm2.22 2.72a4.11 4.11 0 0 1 1.04.17c.25.08.49.25.55.52.05.26 0 .55-.18.75-.19.22-.47.3-.74.39l-.67.12-.01-1.27v-.68z"/></svg>